<?xml version="1.0" encoding="utf-8"?>
<!-- Generator: Adobe Illustrator 24.2.3, SVG Export Plug-In . SVG Version: 6.00 Build 0)  -->
<svg version="1.1" id="Layer_1" xmlns="http://www.w3.org/2000/svg" xmlns:xlink="http://www.w3.org/1999/xlink" x="0px" y="0px"
	 viewBox="0 0 494 404" style="enable-background:new 0 0 494 404;" xml:space="preserve">
<style type="text/css">
	.st0{fill-rule:evenodd;clip-rule:evenodd;fill:#005835;}
	.st1{opacity:0.4;}
	.st2{fill:none;stroke:#FFFFFF;stroke-miterlimit:10;}
	.st3{fill:none;stroke:#FFFFFF;stroke-width:2;stroke-miterlimit:10;}
</style>
<path class="st0" d="M1.5,315.6c0-0.9-0.3-2.5-0.3-3.4c0-0.6,0.3-1.2,0.6-1.9c0.3-0.6-0.3-0.9-0.3-1.2c0.3-0.9,1.2-0.9,1.2-1.9
	c0-0.9-0.3-1.9-0.3-2.5c0-1.5,2.5-2.2,2.2-3.7c0-0.6,0-1.2,0-2.2c-0.9,0-1.2,0.3-1.9-0.6c-0.3-0.6-0.3-1.5,0-2.2
	c0-1.2,0.3-2.5,0-3.7c-1.5-0.3-0.6-1.9-0.6-2.8c0.3-1.5,1.5-1.2,1.2-2.5c0-0.3-0.6-1.9-0.6-2.2c0.3-0.9,1.2-0.6,1.2-1.9
	c0-1.2-0.3-3.4-0.9-4.3v-6.8l2.2-0.3c-0.3-0.6,0-1.5-0.3-2.2c0-0.6,0-1.2,0-1.5c-0.3,0-0.9-0.3-1.2-0.3c-0.6,0-0.9-0.9-1.2-1.2
	c0-0.6,0.3-2.2-0.6-2.2c-0.3-0.9,0-2.5,0-3.1c0.3-1.5,0.3-2.8,0.3-4.3L0,252.1c0-0.3,0-0.3,0.3-0.6c0.9-1.5,0.9-3.7,1.9-5.3
	c0.3-0.3,0.6-1.9,0.3-2.5c-0.3-0.9,0-1.5,0.3-2.5h0.3c0.3-0.6,0.3-0.9,0.3-1.5c0-0.3,0-0.6,0-0.9c-0.3-0.3-0.3-0.6-0.6-0.6
	c-0.3,0-1.2-1.9-1.5-2.2c0-0.3-0.3-1.5-0.3-2.2c-0.3-1.2,1.2-1.9,0.6-3.1c-0.6-1.2,0.9-1.2,1.5-2.2c0.3-0.6,0.6-2.8,0.6-3.4
	c0-1.2-0.3-2.8-0.6-4c0-0.3,0-0.6-0.3-0.6c-0.3-0.3-0.6-0.3,0-0.6c0.3-0.3-0.3-0.6-0.3-0.9c0.3-0.6,0.9-0.3,0.6-0.9
	c-0.3-0.3,0-0.9,0-1.2c-0.3-0.6-1.2-1.9,0-2.5c0.9-0.3,0.9,0,0.6-1.2c0-0.3,0.3-0.9,0-1.2c0-0.3-0.6-0.3,0-0.6c0.6-0.6,0-0.6,0-1.2
	c0-0.3,0.6-0.3,0.6-0.6c0.3-0.3,0.3-0.9,0.3-1.2c0-0.6-0.6-0.6-0.3-1.2c0.3-0.6,0.3-1.2,0.6-1.9c0-0.3,0-0.6,0-0.9v-0.3h1.5
	c1.5,0,2.8,0.3,4.3,0c0.9-0.3,2.2-0.6,3.1-0.9c0.6,0,1.2,0,1.5-0.3c1.2-0.6,1.5-0.6,1.9-2.2c0-1.2,0.9-1.9,1.2-3.1
	c0.3-0.9,0.6-1.2,0.9-2.2c0.6-0.9,0.6-2.2,0.3-3.4c-0.3-1.2-0.9-3.1-0.6-4.3c0.3-2.2,1.9-2.2,3.1-4c1.5-1.9,1.9-2.5,1.9-4.6
	c1.2-0.3,4.9-0.9,3.4-2.8c-1.5-2.5,0.3-4.3,2.2-5.3c0.9-0.3,2.2-0.9,3.4-0.9c0.3,0,1.9,0.3,2.2,0c0.3-0.3,0.9-0.9,1.2-0.9
	c0.6-0.3,0.6-1.2,0.6-1.9c0-0.6,1.2-0.6,1.5-1.2c0.3-0.9,0.3-2.5,0.3-3.7c0.3-1.5,1.2-1.9,2.5-2.5c0.3-0.3,0.3-2.5,0.3-2.8
	c-0.9-0.3-1.9-0.6-2.8-1.2c-0.9-0.3-0.6-1.9-1.2-2.5c-0.6-0.9,2.2-4.3,1.9-5.9c0.3-0.9,1.9-2.8,3.1-2.2c0.6,0.3,3.4,2.2,3.7,1.9
	c0.3-0.6,0.3-1.5,0.3-2.5c0-1.5,0.3-2.8,0.9-4c0.6-1.9,0.6-3.1,0.3-5.3c-0.3-0.9-0.9-0.9-1.5-1.5c-0.6-0.3-0.6-0.9-1.2-1.5
	c-0.3-1.2-1.2-2.5-0.9-4c0.3-1.2,1.2-2.5,0.9-3.7c-0.3-0.9-0.3-1.9-0.6-2.8c-0.3-0.3-0.9-0.6-1.2-0.9v-4l-6.5-4.3l-2.8-2.8l2.5-12.4
	l2.5-4.6l3.1-2.5l-0.3-2.2l-2.8-0.9v-3.4l2.5-2.5l-1.9-6.5l0.3-3.7l0.6-2.2l-0.3-10.5l11.7-9.6l3.7-5.9l2.8-3.7l1.5-7.7V17.7l4-0.3
	l9.6-8.7l16.7-4.3l1.2,1.9l4.3,0.6l2.5-0.9l9,0.6l2.5-2.8l0.3-1.9l7.4-1.9l4.9,2.2l0.6,0.6h1.2l4.9,2.2L140,8.4l2.8,1.5l5.3-1.2
	l6.8,3.1l10.8,11.8l4.3,7.7l1.5,1.2l0.3,1.9h1.5l0.9,1.5l1.9,1.5l5.3,0.3l2.5-1.2l3.7-4l6.5,1.9l17.6-11.1l12.4,2.2l4,3.1l1.9,0.3
	l6.5,6.5l3.1-0.3l3.1,1.2l1.9,1.9l1.2,2.2l13.6,5l1.9-0.3l9.6,0.6l3.7,0.3h4.3l5.9,0.6l3.4-0.6l5.6-6.2l1.9-2.5l3.7-4l4.6-3.4
	l6.8-3.1l6.2,0.6l4.6-1.5l4.6-1.9l2.5-0.9l17.9-0.6l17,0.6l3.4,0.9l4.3,1.9l8,1.9l4.6,2.8l4.3,3.1l3.4,0.3c0,0,0,0,0.3-0.3
	c0.3-0.3,0.6-0.9,0.9-0.9c0.6,0,0.3,1.2,1.5,0.9c0.9-0.3,0.6,0.9,1.2,1.2c1.2,0.6,0.9-0.6,2.5,0.3c0.6,0.3,1.5-0.3,2.5,0
	c1.2,0,2.5,1.5,3.4,0.9c1.2-0.6,0.9-1.5,0.9-2.8c0.3-1.5,0.9-0.6,1.9-0.9c1.9-0.9,1.2-1.5,0.3-2.5c-0.3-0.6,0.6-0.6,0.9-0.6
	c0.3-0.3-0.3-0.9-0.3-0.9c0.6-0.6,0.6,0.6,0.9-0.6c0.3-0.9,0.6-0.3,1.2-0.6c0.3,0,0.9-0.9,1.2-0.6c0.9,0.9,0.9,1.2,1.5-0.3
	c0.6-1.2,1.2-0.3,1.9-0.9c0.6-0.3,1.2-1.2,1.2-2.2c0.3-0.9,0.6-0.3,0.9-0.3c0.3,0,0.3-0.6,0.6-0.9s0.6,0,0.9-0.3s0-1.9,0.6-1.2
	c0.6,0.6,0.9-2.2,1.5-2.2c0.9-0.3,0.6,0.6,1.2,0.6c0.6,0,1.2-0.9,1.9-1.2c0.3,0,0.3,0,0.6,0h0.3c0.3,0,0.9,0,1.2-0.3l0.9-0.6
	c0.6,0.6,1.9-1.2,1.5,0c-0.6,2.5,2.8-1.5,2.8,0c0,0.6,0,1.2,0.6,0.6c0.9-0.9,1.9,1.2,2.5-0.6c0-0.3,0-0.6,0.3-0.9
	c0.9-0.6-0.3-1.5,0.6-1.2c0.9,0,1.2-0.3,0.6-0.9c-0.9-0.6,0.6-1.2,1.2-1.5c0.9-0.6,1.2-1.9,2.2-2.2c0.9-0.3,2.2-0.3,3.1-0.3l9.3,0.3
	l18.5,26.3l4.9,21.1v2.8c0,1.2,0,1.2-0.9,1.9c-0.9,0.6,0.3,1.2,0.6,1.9c0,0.3-0.3,0.6-0.3,1.2s0.9,1.2,1.5,1.5
	c0.6,0.3,2.2-0.3,2.8,0c0.3,0.3,0.6,0.9,1.2,0.6c0.9-0.6,0.6-0.6,1.9,0c0.6,0.3,1.5,0,2.5,0c0.9-0.3,0.9,0,1.2,0.6
	c0,0.3,0.6,0,0.9,0c0.9,0,0.9,1.2,1.9,0.9c0.6-0.3,0.3,1.2,0,1.5c0,0.3,1.5,0.9,1.9,1.2c0.3,0.6-0.6,0.9,0,1.2
	c0.3,0,1.5,0.3,1.5,0.3c0.6,0.6,0.6,1.2,0.9,1.9c0.6,0.6,1.2-0.3,1.5-0.3c0,0.3,0.3,0.9,0.3,1.5c0,0.6-0.9,0.6-0.9,1.2s0,0.6,0,1.2
	c-0.9,0.9-0.3,0.9,0.3,1.5c-0.9,0.9-1.5,0.6-0.9,2.2c0.3,0.9,0.9,1.2,0.9,2.5c0,0.6-0.6,0.9-0.6,1.2s0.3,0.3,0.6,0.6
	c0,0.9-1.9,1.2-1.2,2.5c0.3,0.6,0,3.1-0.3,3.4c-0.3,0.6-1.9,1.9-2.5,2.2c0.3,1.9,2.2,0.3,2.5,1.9c0.3,0.9,1.2,1.5,1.5,2.5
	c0.6,2.5-1.5,5.3-4,5.9c-1.9,0.3-2.5,2.5-4,2.5c-1.2,0-1.9,1.5-2.8,1.9c-1.2,0.9-2.2,1.9-3.7,2.5c-1.2,0.6-1.9,0.9-3.1,2.2
	c-2.5,2.8-3.4-0.3-5.6,0c-1.9,0.3-2.5-1.5-4-1.5c-1.2,0-2.2,3.7-3.1,4.6c-0.3,0.3-0.3,1.2-0.6,1.5c-0.3,0.3-0.9,0-0.9,0.6
	c0,1.2-0.6,1.2-0.9,2.2s-0.9,0.3-1.5,0.9c-0.6,0.6-0.9,2.5-1.2,2.8c-0.6,0.3-1.2,0-1.5,0c-1.2,0-0.6,0.6-0.9,1.2
	c0,0.3-0.6,0.3-0.6,0.6c-0.3,0.6,0.3,2.2,0.3,2.8c0,0.3,0,2.2-0.9,1.9c-0.9-0.3-0.9,0.3-0.9,0.9c0,0.6-0.6,0.3-0.9,0.3
	c-0.3,0.3-0.9,0.9-0.3,1.2c0.6,0.3-0.3,1.2-0.6,1.5c-0.6,0.3,0,0.6-0.3,1.2c0,0.6-0.9,0.3-1.2,0.9c-0.6,0.6,0.3,0.9-0.3,1.5
	c-0.6,0.6,0,1.2-0.6,1.5c-0.6,0.6,0,2.2,0,3.1c0,0.6,1.9,1.2,0.6,1.5c-0.9,0.3-1.9-0.3-1.9,0.9c0,0.6,0,0.6-0.3,1.2
	c-0.3,0.6-0.3,1.2,0,1.9c0,0.6,0.6,2.2,0.6,2.5c-0.3,1.2-0.3,3.4-1.2,4.3s-0.3,0.9-0.3,2.2c-0.9,0.9-0.9,0-1.5,1.5
	c-0.3,0.6-2.2,0.3-1.5,0.9c0.3,0.3,0.6,0.9,0.3,1.2c-0.3,0.3-0.9-0.6-1.5-0.3c0,0.3,0,0.6,0,0.6c-0.9,0.3-1.9-0.3-2.8,0
	c-1.5,0.6-0.9,2.2-1.5,2.8c-0.6,0.6-1.5,0-1.5,1.2c0,1.2,0.9,0.9,1.2,1.9c1.2,1.9-1.9,1.5-1.5,3.1c0.3,0.9-0.3,1.2,0.6,1.9
	c0.6,0.3,2.2,0.9,1.5,1.9c-0.6,1.2-1.5,2.2-1.5,3.4c0,0.3,0.3,0.6,0.3,0.9c0,0.6-0.3,0.6-0.6,0.9c-1.2,1.2,0.3,5-1.9,5.3
	c-0.6,0-0.9,0.6-1.5,0.9c-1.5,0.6-3.4,0.6-4.9,1.2c-0.9,0.3-2.8,1.9-3.4,2.8c-0.6,0.9-0.6,1.5-1.9,1.5s-1.2,1.5-2.5,1.5
	c0,0.9,1.5,1.2,2.2,1.2c1.5,0,0.3,1.9,0.3,2.8s-0.3,1.9-0.3,2.8c-0.3,0.6-0.6,1.9-0.6,2.5c0,0.6,0.6,0.6,0.6,1.5
	c-0.3,1.5-1.2,3.7-2.5,5c-0.6,0.6-1.5,2.5-1.2,3.4c0.3,0.9-0.3,1.5-0.9,2.2c0,0.9,1.5,1.5,0.3,2.5c-0.6,0.6-0.3,1.9-0.6,2.2
	c0,0-0.9-0.6-1.2-0.6c-3.1-1.5-1.2,5.3-4.3,4.3c-0.6,0.3-2.2,0.3-2.2,1.2c0,0.6,0.3,1.2-0.6,1.2c-1.5,0-2.2-1.9-3.4-1.9
	c-1.2,0-1.2,1.2-2.8,0.9c-0.9-0.3,0.6,2.2,0.6,2.5c0.6,1.2-2.5,3.4-3.7,3.7c-1.2,0.3-1.5,2.5-2.5,1.9c-0.6-0.3-0.9-0.6-1.9-0.9
	l-0.9,2.2l0.3,9.3l-2.5,2.5l0.6,5.9c-0.3,0.3-0.3,0.6-0.3,0.9c0,0.3-0.6,0.3-0.9,0.6c-0.6,0.3-0.6,1.2-1.2,1.9l-2.8,3.7
	c-0.6,0.6-0.6,1.9-0.9,2.5c-0.6,0.9-0.9,1.2-1.5,2.5c-0.3,0.6-0.6,0.3-0.9,0.9c0,0.9,0.6,1.2,0.6,2.2c0,0.6-0.3,1.2,0.3,1.5
	c0.3,0.3-0.3,0.6-0.3,0.9s0.6,0.6,0.6,0.9c-0.3,0.9-1.5,0.6-2.2,0.9c-0.3,0.3-0.3,0.6-0.9,0.3c-0.6,0-1.2,0.3-1.2,0.9
	c-0.3,0.6,0.6,1.2,0.3,1.9c-0.3,0.6,0.3,1.2-0.6,1.9c-0.6,0.3-1.2,0.9-0.9,1.9c0.3,0.6-0.3,0.6-0.6,0.9c0,0.3,0,0.6-0.3,0.9
	s-0.6,0.3-0.6,0.6c-0.3,0.9,0.6,0.6,1.2,0.9c0,0.6-0.9,1.2-0.9,1.5c0,0.6,0.3,0.9,0.3,1.5c0,1.2,0.9,2.2,0.3,3.4
	c-0.3,0.3-0.9,0.9-1.2,0.3c-0.6,0-0.3,0.9-0.9,0.6c-0.6-0.6-1.2-0.3-1.5,0.3c-0.9,1.9-2.2,0-3.4,1.5c0,0.3-1.9,1.5-2.2,1.5
	c-0.6,0-1.2-0.3-1.2,0.6c0,0.9,0.3,0.6-0.3,1.2c-0.3,0.3-0.3,0.6-0.3,0.9c0,0.6-1.2,0.6-1.5,0.9c-0.6,0.9-0.9,1.9,0.3,2.5
	c0.3,0.9-0.6,1.2,0.6,1.5c0,0.9-1.5,0.9-0.9,1.9c0.6,0.9,0.6,1.2-0.3,1.9c-0.6,0.3-0.3,0.6-0.3,1.2c0,0.9-0.3,0.9-0.9,1.5
	c-0.3,0.3-0.6,1.9-1.5,1.9c-0.3,0-0.9-0.6-1.2-0.3c-0.3,0.3-1.5,0.3-1.5,0.6c0.3,0.6,0.3,0.9,0,1.9c-0.3,0.9-1.2,0.6-2.2,0.6
	c-0.6,0.3-0.6,0.9-0.9,0.9c-0.6,0.3-1.5-0.3-1.5-0.9c-0.3-0.9-1.5-0.6-1.9-0.3c-0.9,0.6-0.6,0-1.5-0.3c-1.5-0.6-0.6,1.2-2.2,1.2
	c-1.5,0-0.6,0-1.5-0.6c-0.3-0.3-0.6,0-0.9,0.3c-0.9,0.3-0.9-2.5-0.9-3.1c0-1.2,0.3-4-0.6-4.6c-2.2-1.5-4,1.9-6.2,0
	c-0.9-0.9-0.6-1.2-0.6-2.5c0-0.6-0.6,0-0.9-0.6c-0.6-1.2-2.2-1.2-3.1-2.8l0.9-4c-0.6-0.3-2.2-1.5-3.1-0.9c-0.9,0.3-1.5-0.9-2.2-1.5
	c-0.6-0.6-1.2-0.6-1.2-1.5c-0.3-1.2-1.9-0.3-2.5-0.6l-0.9-0.9c0-0.6,0.3-0.9,0.3-1.5c0-0.9-0.6-1.5-1.2-1.9l-0.6,7.4
	c-0.3,0.6-0.3,1.5-0.6,1.9c0,0.3-0.3,0.3-0.6,0.3c-0.3,0.3-0.6,0.3-0.9,0.3l-0.6,0.6l-1.2-0.6l-10.2,0.9l-1.9-1.5
	c-0.3-0.3,0-0.6,0-0.9c0.3-0.3,0-0.6,0-0.9c0-0.3,0-0.6,0-0.6c0-0.3,0-0.6,0-0.9l-0.3-0.3v-0.3c0-0.3-0.6,0-0.6,0l-11.4,10.2
	c-0.9,0.6-1.5,0-2.2-0.3c-0.9-0.3-1.5,0.6-1.5,1.5c0,0.6-0.3,0.9-0.6,1.5c-0.3,0.6,0.3,1.2-0.3,1.5c-0.6,0.3,0,0.6,0,0.9
	c-0.6,0.6-1.9,5.3-1.9,5.9c-0.6,0.3-1.5,0-1.9-0.3c-0.3-0.3-1.2,0-1.9,0c-0.6,0-0.9,0.3-0.9,0.9c0,1.2-0.3,1.2-1.2,1.9
	c-1.2,0.9-2.2,0.3-3.7,0l-1.9,5.9c-0.9-0.6-2.8-3.1-3.4-0.6c-0.3,1.5-1.5,3.1-2.5,4.3c-0.6,0.9-0.6,2.5-2.2,2.2
	c-2.2-0.3-2.8,1.5-3.4,3.1l-3.4,3.4l-5.6,4.3l-0.9,0.6l-0.6,1.2l-0.9,0.3l0.6,1.9c0,0.3-0.6,1.5-0.3,1.9c0.3,0.6-0.9,0.6-0.6,1.2
	c0.3,1.5-1.9,0.9-0.3,2.5c0.6,0.6,1.5,1.2,1.9,1.9c0.3,0.6,1.2,2.2,0.9,2.8c-0.3,0.6-0.9,0.9-1.2,1.5c-0.6,0.9-1.2,1.5-1.5,2.5
	c-0.6,0.9-0.9,1.9-0.3,2.8c0.3,0.6-0.3,1.2-0.3,1.9c-0.3,1.5-0.9,4.6-0.6,5.9c0.3,0.6-0.3,0.9-0.6,1.5l-0.9,2.2
	c-0.3,0.3-0.9,0.3-1.2,0.6c-0.9,0.9-0.9,2.2-1.5,3.1c-0.3,0.6-1.2,0.6-0.6,1.5c0.3,0.3-1.9,1.2-1.5,1.9c0,0.6,0.3,0.9-0.6,1.2
	c-0.9,0.3-1.2,0.3-1.2,1.2c0,0.6,0.9,1.2,0.9,2.2l-1.5,0.9l-0.6-0.3c-0.3,0-0.3,0-0.6,0c-0.6,0.3-0.6,1.2-0.6,1.9
	c0,0.3-0.3,0.9-0.3,1.2c0.3,0.9-0.3,1.2-0.9,1.5c-0.3,0-0.9,0.3-1.2,0.3c-0.6,0-0.9-0.9-0.9-1.2c0.6-1.2-0.3-0.6-0.9-0.3
	c-1.2,0.6-0.9,0-1.9-0.6c-0.6-0.3,0-0.6,0-0.9c0-0.6-1.2,0-1.5-0.3c-0.6-0.3-1.5-1.9-1.5-2.5c-0.3-1.2-2.8-1.9-1.5-3.1
	c0.3-0.3,0.3-0.6,0.6-0.9c0.3-0.6-0.9,0.9-1.2,0.6c-0.3,0-0.9-0.9-1.2-0.9c-0.9-0.6-2.8-3.1-2.5-1.5c0.3,0,1.9,1.2,2.2,1.5
	c0.6,0.6,0.9,1.5,1.5,2.5c0.3,0.6,0.9,0.9,1.5,1.5c0,0.3-0.3,0.6,0,0.9c0.3,0.3,0.9,0.6,0.6,0.9c-0.9,0.6-0.9-1.2-1.5-0.9
	c-0.3,0-1.5-0.6-1.2-0.3c0,0.3,0.6,0.3,0.6,0.3l1.2,1.5c0.9,0.9,1.9,1.2,1.5,2.5c0,0.6,0.9,1.9,0,2.5c-0.3,0.3,0,0.3,0,0.6
	c0,0.6,0.6,0.9,0.9,1.5c0,1.5-1.5,0-1.9,1.5c-0.3,0.6-0.3,1.2-0.6,1.9c-5.3-0.9-11.4-0.3-17,0c-1.5,0-4,0.9-5.3,0.9
	c-1.2,0-2.5,0.3-3.4,0.6c-0.9,0.3-1.2,0.9-2.2,0.6c0-0.3-0.3-1.2-0.9-0.9c0,0.3,0,0.9,0,1.2c-0.6,0.3-3.4,0.3-4.3,0.6
	c-2.2,0.3-3.4,0.3-5.6,0c-0.9-0.3-0.6-0.6-0.6-1.2c0-0.3,0.6-0.6,0.6-0.9c-0.3,0-1.2-0.3-0.9,0c0.3,0.3,0,1.2,0,1.5s0.3,0.9,0.3,1.2
	c0,0.9-0.3,0.6-0.9,0.9c-1.2,0.3-2.5,0.9-3.4,1.2c-0.9,0.3-2.8,0-3.1-0.9c-0.3-0.9,1.9-2.5,2.2-3.1c0.6-0.6,1.2-1.2,1.5-1.9
	c0.3-0.6,0.6-0.3,1.2-0.3c0,0-0.6-0.9-0.6-1.2l-0.9-1.2c-0.9-0.9-1.2-2.5-2.5-3.1c-0.6,0-1.5-0.6-1.9-0.9c-0.3,0-0.3,0,0,0
	c0.3,0.6,1.9,1.2,2.5,1.9c1.5,1.2,1.2,4,0.9,5.6c-0.3,2.2-1.2,1.2-2.5,1.5c-1.2,0.3-2.2,1.2-3.7,0.6c-0.3-0.3-0.3-0.9-0.3-1.5
	c-0.3-0.9-0.3-1.9-0.6-2.8c-0.3-1.2-0.3-1.9-0.3-3.1c0-0.3-0.6-1.9-0.9-2.5c0-0.3,0-0.3,0,0c0,0.9,0.6,1.9,0.6,2.8
	c0,0.9,0.3,3.4,0,4.3c-0.3,0.3,0.3,2.2,0.6,2.5c0.3,0.9,1.9,2.8,0.6,3.4c-1.2,0.6-4.3-0.3-5.3-0.9c-1.9-0.9-1.9-5-2.5-6.8
	c-0.3-1.2,1.9-1.5,0.6-2.8c-0.3-0.3-1.9-1.5-1.9-1.2c0,0.6,0.9,1.2,1.2,1.5c0.9,0.9-0.9,1.5-0.9,2.5c0,0.6,0.6,2.2,0.9,2.8
	c0.3,1.2,0.3,2.5,0.6,3.7c0.3,1.2,2.8,2.5,0.3,2.5c-1.2,0-2.5,0.3-3.4,0.3c-2.2,0.3-1.5-1.5-2.2-3.1c0-0.6,0.3-0.9,0.3-1.2
	c-0.3-0.6-0.6-0.6-0.6-1.9c0-0.9,0.6-1.5,0.9-2.2c0.3-0.9,0-1.5,0-2.5c0,0.9-0.3,1.9-0.6,2.8c-0.6,1.2-1.2,1.9-0.6,3.4
	c0.3,0.3,0.3,2.2-0.3,0.9c0-0.3-0.3-0.6-0.3-0.9c0-0.3-1.2-3.4-1.2-1.5c0,0.3,0.3,0.6,0.3,0.6c0.3,0,0.3,1.5,0.3,1.9
	c0,0.9,1.2,1.9,1.5,2.8c0.3,0.9-0.6,0.6-1.2,0.9c-0.9,0.3-1.2,1.5-2.2,0.6c-0.3-0.3-2.2-1.9-1.5-0.3c0.3,0.6-0.9,0.6-1.2,0.6
	c-0.9,0-2.5,0.3-3.4,0.3c-0.9,0.3-1.5,0-1.5-0.9c0-0.3-1.2,0-1.2,0.3c0,0.3,0.3,0.6,0.3,1.2c-0.9,0.3-2.2,0.3-3.4,0.3
	c-0.9,0-3.1,0.3-3.7,0.3c-0.3,0,0.3-1.2,0.3-1.2c0.3-1.2,2.8-3.4,2.5-4.6c-0.3,0-1.2,2.5-1.9,1.9c-0.3-0.3-0.6-3.1-0.9-3.7
	c-0.3,0,0,1.9,0.3,2.2c0.3,1.2-1.2,2.5-1.2,3.7c0,0.6,0.9,2.8-0.6,2.5c-0.9,0.3-2.8,0-3.7,0c-0.6,0-1.5,0.3-1.5-0.6
	c0-0.6,0-3.1-0.3-3.4c-0.3,0.3,0,1.2,0,1.9v2.2c-0.6,0-1.9-0.3-2.5-0.6c-1.9-0.6-1.2-0.6-1.2-2.2c0-0.6,0-1.5,0-2.2
	c0-0.3,0.6-1.9,0.3-1.9c-0.3,0.6-0.6,1.2-0.9,2.2c-0.3,0.9,0,1.9-0.3,2.8c-4.9-2.2-9-7.4-13.3-10.8c-0.9-0.9-3.4-4-3.7-5.3
	c-1.2-3.1-3.1-5.3-4-8.4c-0.6-2.8-1.5-5-3.1-7.4c-0.3-1.9-1.5-2.2-0.9-3.7c0.3-1.2-0.3-3.7-0.6-5c0-0.3-0.6-1.9-0.3-2.2
	c0.3,0,2.5,0,3.1,0c2.2,0,1.9,0.6,2.8-1.5c0.6-0.3,1.9,0.6,1.9-0.6c0-1.2-0.3-1.9,0.3-3.1c0.6-1.2,2.8,0,3.7-2.2
	c0.3,0,0.9,0,0.9-0.3c-1.9-0.6-1.5,1.2-2.8,1.2c-2.5,0-2.2,0.9-3.1,3.1c-0.9,2.2-1.9,0.3-2.5,0.6c-0.3,0.3,0.9,1.2-0.6,1.2
	c-0.9,0-1.5-0.3-2.5-0.6l-3.4-0.6c-0.9-0.6-5.3-4.3-4.3-5.6c0.9-1.5,2.2-2.2,4-1.9c1.5,0.3,3.1,0.6,4.6,0.6c0.6,0,0.6-0.6,0.9-0.9
	c0-0.6-0.9,0.3-1.2,0.3c-0.6,0.3-1.2,0-1.9-0.3c-1.2-0.9-3.7-0.6-5.3,0c-1.2,0.6-1.9-0.6-2.5-1.2c-1.5-1.9-2.8-3.4-2.2-5.9
	c0.3-1.2,1.9-1.2,2.8-1.9c0.3-0.3,4.6-3.1,4.9-3.4c-0.9,0-5.3,2.8-6.2,3.1c-0.6,0.3-2.8,2.8-2.8,2.5c-0.6,0-1.2-1.2-1.5-1.9
	c-0.6-1.5-2.2-2.8-2.8-4.3c-0.6-2.2-3.7-5-5.3-6.5l-6.8-5.9c-1.2-0.9-3.1-1.5-3.7-2.8c-2.8-1.9-4.9-3.4-8.3-4l-12-1.9l-6.2-0.9
	l-20.7,0.9v-1.9c0.6,0,1.2,0,1.9,0c0.9-0.3,1.2,0.6,2.2,0.6s2.2-1.2,2.5-2.2c0.6-1.2,2.5-0.6,3.4-0.9c0.6-0.3,1.2-0.6,1.9-0.6
	s1.5-0.6,1.5-1.2c1.2-1.9,4-1.9,6.2-1.5c1.9,0.3,3.4,0.9,5.3,1.5c0.6,0.3,2.5,0.6,2.8,1.2c0.6,0.6-0.3,1.5-0.9,1.5
	c-1.2,0-2.8-0.9-4-0.6c-1.2,0.3,1.5,1.2,1.9,1.5c0,0.3,2.2,1.2,2.5,1.5c1.2,0.9,1.5,0.3,0.3-0.3c0.9,0,2.2-0.6,2.8,0.6l0.3,0.6
	c0.3,0,0.6-0.9,0.3-0.9c0-0.3,1.2-0.6,1.5-0.6c-0.9-0.3-2.2,0-2.2-0.9c0-1.2,0.9-0.9,1.5-1.5c2.5-2.2-1.2-2.8-2.8-1.2
	c-1.9,1.5-2.8-0.3-4.9-0.6c-1.9-0.6-3.4-1.5-5.6-1.5s-4-0.3-6.2,0.3c-1.5,0.3-2.5,1.5-4,2.2c-0.9,0.3-1.5-0.3-2.2,0
	c-1.2,0.6-1.5,0.6-2.5,0.9c-2.5-0.9-0.9-1.5-0.9-3.1c-0.3-0.3-1.2,0.6-1.5,0.9c-0.3,1.2-1.9,0.6-1.5,2.2c0.3,1.2-0.3,1.9-0.6,2.8
	c-0.3,0.9,0,1.5,0,2.2c-0.6,0.3-3.7,0-4.3,0l-6.5,0.6c-4.6,0.3-8.7-0.3-13,0.6C4.3,315.3,3.1,315.6,1.5,315.6z"/>
<g class="st1">
	<path class="st2" d="M228.6,350.6c-3,0-5.9-0.5-8.6-1.6c-8.3-3.3-14.9-11.2-17.5-21c-1-3.8-1.5-7.7-1.9-11.6
		c-0.9-7.6-1.7-14.7-6.4-19.4c-2.4-2.4-5.6-4-9-5.6c-3.3-1.5-6.7-3.2-9.6-5.7c-6.6-5.8-8.3-13.8-10-21.5c-0.9-4-1.7-7.8-3.2-11.3
		c-1.4-3.3-3.6-5.8-5.9-8.5c-3.9-4.6-8.3-9.8-8-18.4c0.4-9.7,7-18.9,16.1-22.2c4.4-1.6,9.1-1.9,13.6-2.1c5-0.3,9.8-0.5,13.8-2.6
		c5.5-2.8,9.1-8.6,12.5-14.3c0.5-0.7,1-1.5,1.4-2.3c4-6.3,9.1-9.8,14-13.1c3.8-2.6,7.3-5,10.5-8.5c4.7-5.5,10-14.4,8.3-25.5
		c-0.1-0.5-0.2-1.1-0.3-1.7c-0.5-3.2-1.2-6.7,0.2-10.1c2.6-6.7,6.7-8.1,9.7-8.1c8.7,0,17.3,12.2,19.7,16c2.9,4.5,5,8.9,5.4,11.6
		c2.1,11.5-0.6,23.2-3.4,33c-0.9,3.3-1.7,6.9-2.5,10.8c-2.8,13.2-6,28.1-16.5,35.7c-3.9,2.8-8.3,4.2-12.6,5.5c-3.6,1.1-7,2.2-10,4
		c-7.6,4.6-11.6,14.6-9.3,23.3c0.2,0.7,0.4,1.4,0.6,2.1c0.7,2.2,1.5,4.6,1.3,7.3c-0.3,4.2-2.8,7.5-5,10.4c-1.3,1.7-2.5,3.3-3.3,5
		c-2.6,5.7,0.2,12.6,4.3,16.5c4,3.8,9.9,6.3,17.9,7.6c1.4,0.2,2.8,0.4,4.2,0.6c3.8,0.5,7.8,1,11.6,2.2c6.5,2.1,11.2,6.4,13.1,11.5
		c1.2,3.4,1,7.4-0.7,10.7c-1.4,2.8-3.7,4.9-6.5,5.7c-1.1,0.3-2.1,0.4-3,0.5c-1,0.1-1.9,0.2-2.6,0.5c-1.4,0.6-2.4,2.2-3.4,3.9
		c-0.4,0.7-0.8,1.4-1.4,2C242.5,347.4,235.9,350.6,228.6,350.6z"/>
	<path class="st2" d="M265.9,132.9c-7-10.8-19.3-22.3-24.8-8.3c-1.3,3.3-0.3,6.9,0.2,10.4c1.6,10.4-2.2,19.9-8.9,27.7
		c-7.5,8.8-17.7,10.9-24.2,21.4c-4.2,6.6-8.1,14-15,17.5c-8.4,4.3-18.8,1.5-27.7,4.8c-8.1,2.9-14,11.1-14.4,19.8
		c-0.5,12.1,9.6,16.2,13.7,25.7c4.5,10.5,3.3,23.7,12.5,31.8c5.5,4.9,13.6,6.1,18.7,11.4c8,8,6.1,21.3,9,32.3
		c2.2,8.4,8,16.1,15.9,19.2c8,3.2,18.1,1,23.2-6c1.8-2.5,3.1-5.6,5.9-6.8c1.8-0.8,4-0.6,5.9-1.2c5-1.4,7.3-8,5.5-12.9
		c-1.8-5-6.5-8.3-11.5-9.9c-5-1.7-10.2-1.9-15.4-2.7c-7-1.1-14.1-3.3-19.3-8.3c-5.2-4.9-7.9-13.1-4.9-19.6c2.3-5.1,7.7-8.8,8.1-14.4
		c0.2-2.9-1.1-5.7-1.8-8.6c-2.6-9.8,1.9-21.1,10.5-26.3c7-4.2,15.8-4.6,22.4-9.4c12.8-9.2,14-31,18.1-45.1c3-10.4,5.2-21.2,3.3-31.8
		C270.5,141.1,268.6,137.1,265.9,132.9z"/>
	<path class="st3" d="M228.6,342.6c-2,0-4-0.4-5.7-1.1c-5.9-2.3-10.8-8.3-12.8-15.6c-0.8-3.2-1.3-6.7-1.7-10.5
		c-1-8.2-2-17.5-8.7-24.2c-3.4-3.4-7.5-5.3-11.2-7.1c-2.9-1.4-5.7-2.7-7.8-4.5c-4.6-4.1-5.9-10.1-7.4-17.1
		c-0.9-4.2-1.8-8.5-3.6-12.7c-1.8-4.4-4.7-7.7-7.2-10.6c-4-4.7-6.3-7.6-6.1-12.8c0.3-6.5,4.9-12.8,10.9-15c3.3-1.2,7.2-1.4,11.4-1.7
		c5.6-0.3,11.4-0.6,16.9-3.4c7.4-3.8,11.8-10.9,15.7-17.2c0.5-0.7,0.9-1.5,1.4-2.2c3.1-4.9,7.1-7.6,11.8-10.7
		c4.1-2.7,8.2-5.6,12-9.9c8.3-9.7,11.9-20.8,10.1-32c-0.1-0.6-0.2-1.2-0.3-1.8c-0.4-2.3-0.8-4.5-0.3-5.8c0.3-0.7,1.3-3.1,2.3-3.1
		c2.5,0,8.1,4.6,13.1,12.3c2.7,4.3,4.1,7.5,4.3,8.7c1.7,9.9-0.6,20.4-3.2,29.4c-1,3.5-1.8,7.3-2.6,11.4c-2.5,11.7-5.3,25-13.4,30.9
		c-2.9,2-6.5,3.2-10.4,4.4c-3.9,1.2-7.9,2.5-11.7,4.8c-6.6,4-11.3,10.9-13,18.5c-0.8,3.8-1.1,8.1-0.3,11.9c1.1,4.5,1.5,9.7-0.3,14.3
		c-2.2,5.4-6.7,8.2-6.9,14.5c-0.2,6.8,2.9,13.5,7.8,18.2c5.2,5,12.5,8.2,22.2,9.7c1.5,0.2,3,0.4,4.4,0.6c3.6,0.4,7,0.9,10.1,1.9
		c4.1,1.3,7.1,3.8,8.1,6.7c0.5,1.3,0.4,3-0.3,4.3c-0.3,0.5-0.8,1.3-1.7,1.6c-0.4,0.1-1,0.2-1.7,0.3c-1.4,0.2-3.1,0.4-4.9,1.2
		c-3.5,1.6-5.4,4.5-6.9,6.9c-0.4,0.6-0.7,1.2-1.1,1.7C237.6,340.6,233.3,342.6,228.6,342.6z"/>
	<path class="st2" d="M226.2,218.8c-2.7,0-5.2-0.7-7.8-1.4l-6.1-1.8c-1.1-0.3-3.6-1.1-5.2-3.6c-1.7-2.8-1.3-6.4,1.1-9.6
		c2.5-3.3,5.6-5.6,8.6-7.7c2.5-1.8,4.8-3.5,6.4-5.6c1.2-1.5,2.1-3.4,3.1-5.4c1-2,2-4.1,3.4-6.1c2.8-4.1,7.6-6.5,12.8-6.5
		c1.7,0,3.4,0.3,5,0.8c3.6,1.2,6.3,3.8,7.3,7.1c0.7,2.4,0.9,6.3-2.5,10.8c-1.2,1.6-2.4,3.1-3.6,4.5c-2.5,3-4.6,5.6-6.1,8.9
		c-0.3,0.5-0.5,1.1-0.7,1.7c-2.1,4.9-4.8,11.1-11.2,13.2C229.3,218.5,227.8,218.8,226.2,218.8z"/>
	<path class="st2" d="M245.9,176.9c-3.7-1.3-9-0.3-11.8,3.7c-2.6,3.7-3.9,8.2-6.7,11.8c-4.1,5.3-10.9,7.9-14.9,13.2
		c-0.8,1-1.5,2.5-0.8,3.5c0.4,0.7,1.4,1.1,2.2,1.3c2,0.6,4.1,1.2,6.1,1.8c3,0.9,6.2,1.8,9.1,0.7c4.8-1.7,6.7-7.3,8.8-12
		c2.6-5.8,6.7-9.5,10.3-14.4C251.8,181.7,249.7,178.2,245.9,176.9z"/>
	<path class="st2" d="M226.2,210.8c-3.3,0.3-7.1-1.4-10.3-2.1c-0.6-0.1-1.3-0.3-1.5-0.9c-0.3-0.7,0.4-1.4,1-1.9
		c4.7-3.7,10.3-7.1,14.1-11.9c1.7-2.1,2.9-4.5,4-6.8c0.9-1.8,1.7-3.6,2.9-5.1c1.9-2.7,10.2-5.4,10.9-0.3c0.3,2-1.4,3.8-2.8,5.3
		c-4.1,4.3-7.4,9.2-9.8,14.6c-1.1,2.3-2,4.9-3.7,6.7C229.5,210,227.9,210.6,226.2,210.8z"/>
	<path class="st2" d="M204.6,241.4c-3.9-8.4-36.5-34.7-37.7-13.4c-0.3,5.6,4.2,10.2,5.5,15.6c0.9,3.5,0.4,7.3,0.8,10.9
		c0.7,5.9,4.8,13.9,8.4,18.6c1.7,2.2,4.3,3.7,7,3.3c6.8-1.1,5.2-8.7,7.3-13.2c2.4-5.1,8.7-8,9.9-13.8
		C206.6,246.8,205.7,243.9,204.6,241.4z"/>
	<path class="st2" d="M187.8,273.8c-1.4,0-3-0.9-4.1-2.3c-3.3-4.3-7.2-11.9-7.9-17.3c-0.2-1.3-0.2-2.7-0.2-4.2
		c-0.1-2.3-0.1-4.6-0.7-7c-0.6-2.5-1.7-4.7-2.9-6.8c-1.4-2.8-2.8-5.4-2.6-8c0.3-5.7,3-5.7,4.3-5.7c8.8,0,25.8,14.4,28.4,20
		c1.2,2.6,1.6,4.6,1.2,6.4c-0.5,2.5-2.5,4.5-4.6,6.6c-1.9,1.9-3.9,4-5.1,6.6c-0.8,1.7-1.2,3.6-1.5,5.4c-0.7,4.2-1.3,5.8-3.9,6.2
		C188.2,273.8,188,273.8,187.8,273.8z"/>
	<path class="st2" d="M187,266.9c-2.3,0.4-4.6-4-5.1-5.7c-0.8-2.9-0.5-6-0.5-9.1c0-6.7-1.8-13.5-5.1-19.3c-0.5-0.9-1-1.7-1.2-2.7
		c-0.2-1,0.2-2.1,1-2.6c1.3-0.7,2.7,0.2,3.9,1.2c4.2,3.4,8.3,6.9,12.5,10.3c2.2,1.9,4.6,4,5,6.9c0.3,2.7-1.2,5.2-3.1,7.2
		c-1.8,2-4,3.6-5.5,5.9c-0.8,1.2-1.4,2.8-1.4,4.3c0,1.3,1.3,3.3-0.4,3.6C187.1,266.9,187,266.9,187,266.9z"/>
	<path class="st2" d="M186.7,253.3c-0.2,0-0.3-0.1-0.3-0.2c-0.1-0.2,0.1-0.4,0.1-0.6c0.5-1.1-0.1-2.8-0.3-4c-0.3-1.3-0.6-2.6-1-3.8
		c-0.3-1.1-0.6-2.1-0.7-3.3c-0.1-0.5-0.2-1.4,0.3-1.8c0.1,0,0.1-0.1,0.1-0.1c1.1-0.5,2.4,1.1,3,1.9c0.4,0.5,0.7,1,1.1,1.4
		c0.6,0.7,1.3,1.2,1.9,1.8c0.5,0.4,1.2,1.1,1.3,1.8c0.1,0.3-0.3,1.3-1.6,2.9c-0.5,0.5-1.1,1.1-1.7,1.7c-0.6,0.6-0.9,1.4-1.5,1.9
		c-0.2,0.1-0.3,0.2-0.5,0.3C186.8,253.3,186.7,253.3,186.7,253.3z"/>
	<path class="st2" d="M293.8,335.6c-5.6,0-11.6-3.7-15.1-9.5c-2.6-4.2-3.9-8.8-5.2-13.2c-0.5-1.7-1-3.3-1.5-5
		c-2.3-6.8-5.5-11.2-9.6-13.1c-1.8-0.9-3.9-1.2-6.4-1.2c-2.7,0-5.4,0.4-8.3,0.9c-1.5,0.2-3.1,0.5-4.6,0.6c-1.1,0.1-2.3,0.2-3.4,0.2
		c-8.9,0-15.3-3.7-17.2-9.9c-1.6-5.1,0.6-10.4,2.4-13.9c0.4-0.9,0.9-1.8,1.4-2.6c2.1-4,4.1-7.8,4.2-11.7c0.1-1.1-0.1-2.3-0.2-3.6
		c-0.2-1.9-0.4-4-0.1-6.1c1.3-8.7,10.3-13.6,18.8-14.6c1-0.1,2.1-0.3,3-0.4c4.4-0.6,8.6-1.1,12.4-1.1c10.9,0,17.4,4.6,21.8,15.6
		c1.1,2.7,2,5.6,2.8,8.3c1.2,3.6,2.2,7.1,3.7,10.4c4,8.5,11.5,16.2,21.7,22.3c0.8,0.5,1.6,0.9,2.4,1.4c5,2.9,10.1,5.8,13.3,11
		c2.3,3.8,2.7,9.3,0.9,13.5c-1.4,3.3-3.9,5.4-7.1,6.1c-0.8,0.2-1.6,0.3-2.6,0.3c-0.5,0-1.1,0-1.6-0.1c-0.5,0-0.9-0.1-1.4-0.1
		c-0.4,0-0.7,0-1,0.1c-3.5,0.4-6.2,3.4-9.1,6.7c-3.1,3.4-6.3,7-10.9,8.3C296.1,335.5,295,335.6,293.8,335.6z"/>
	<path class="st2" d="M327.7,301.8c-3.3-5.4-9.3-8.3-14.7-11.5c-9.5-5.7-18.1-13.4-22.8-23.4c-2.8-6-4.2-12.6-6.7-18.8
		c-6.8-17.1-18.3-14.4-34.4-12.4c-7.3,0.9-15.4,5-16.5,12.3c-0.5,3.1,0.4,6.2,0.3,9.3c-0.2,5.6-3.4,10.6-5.9,15.5
		c-1.8,3.7-3.4,7.9-2.2,11.9c2.1,6.8,10.8,8.7,17.7,7.8c7-0.8,14.4-3,20.7-0.1c5.6,2.6,8.9,8.7,10.9,14.6c2,6,3.2,12.3,6.5,17.6
		c3.3,5.3,9.6,9.5,15.6,7.9c8.3-2.2,11.9-14,20.5-15c2.1-0.2,4.3,0.3,6.3-0.2C329.4,316.1,331,307.2,327.7,301.8z"/>
	<path class="st2" d="M293.8,327.6c-2.9,0-6.3-2.3-8.4-5.7c-2-3.2-3.2-7.2-4.4-11.3c-0.5-1.7-1-3.5-1.6-5.2c-3-9-7.7-15-13.8-17.8
		c-2.9-1.3-6-2-9.7-2c-3.3,0-6.5,0.5-9.6,1c-1.5,0.2-2.9,0.5-4.3,0.6c-0.8,0.1-1.6,0.2-2.5,0.2c-3.9,0-8.7-1.1-9.6-4.2
		c-0.5-1.8,0.1-4.3,1.8-7.9c0.4-0.8,0.8-1.7,1.3-2.5c2.4-4.4,5-9.5,5.2-15.3c0.1-1.7-0.1-3.3-0.3-4.6c-0.2-1.5-0.3-2.9-0.2-4.1
		c0.5-3.2,4.7-6.9,11.9-7.9c1.1-0.1,2.1-0.3,3.1-0.4c4.3-0.5,8.1-1,11.4-1c6.6,0,10.9,1.7,14.4,10.6c1,2.5,1.8,5,2.6,7.7
		c1.2,3.7,2.4,7.6,4.1,11.4c4.7,10,13.3,18.9,24.9,25.8c0.8,0.5,1.6,1,2.5,1.4c4.3,2.5,8.3,4.8,10.4,8.2c1,1.7,1.2,4.3,0.4,6.1
		c-0.5,1.3-1.2,1.4-1.4,1.4c-0.2,0.1-0.5,0.1-1,0.1c-0.4,0-0.8,0-1.3-0.1c-0.5,0-1.1-0.1-1.7-0.1c-0.7,0-1.3,0.1-1.8,0.1
		c-6.5,0.7-10.6,5.2-14.1,9.2c-2.4,2.7-4.7,5.2-7.1,5.9C294.7,327.5,294.2,327.6,293.8,327.6z"/>
	<path class="st2" d="M265.3,250.9c-3.9-4.8-9.8-7.4-15.8-3.4c-2.9,1.9-3.1,6.1-4.7,9.2c-1.8,3.4-5.6,5.7-6.6,9.4
		c-1,3.9,1.5,7.9,4.5,10.5c2,1.8,3.3,1.7,5.6,1c2.3-0.7,4.2-1,6.7-0.7c5.6,0.4,11,2.1,16.7,1.8c2.1-0.1,4.3-0.7,5.3-2.5
		c1.1-2,0.1-4.5-1-6.5C272.7,263.3,269.9,256.4,265.3,250.9z"/>
	<path class="st2" d="M270.2,276c-5.1-0.2-10-1.4-15-1.8c-0.6-0.1-1.3-0.1-1.8-0.1c-3.9,0-7.9,2.6-11-1.2c-1.4-1.7-1.8-4.1-1.3-6.2
		c0.8-3.6,4.4-5.5,6.1-8.7c0.7-1.3,1.1-2.6,1.5-3.9c0.6-1.9,1.2-3.6,2.3-4.3c1.5-1,3.1-1.5,4.6-1.5c3.6,0,6.4,2.7,7.8,4.4
		c3.3,4.1,5.9,9.1,8.2,14c0.8,1.7,1.6,3.2,2.5,4.8c0.7,1.2,1.1,2.8,0.1,3.8c-0.7,0.7-1.7,0.8-2.7,0.8C271.1,276,270.7,276,270.2,276
		z"/>
	<path class="st2" d="M266.7,269.7c-0.3,0.4-0.8,0.6-1.4,0.6c-0.7,0.1-1.4-0.2-2.1-0.4c-3-0.9-6.1-1.3-9.2-1.2
		c-1.6,0-3.2,0.1-4.8,0.4c-1,0.2-2.6,1-3.2-0.4c-0.6-1.3,1.3-2.9,2.1-3.7c1.2-1.3,2.5-2.7,3.6-4.6c0.9-1.7,1.1-3.3,1.8-5
		c0.3-0.7,0.8-1.4,1.6-1.7c1-0.4,2.1,0.1,2.9,0.7c1.6,1.4,3,3.8,4.2,5.7c1.4,2.2,2.7,4.5,4.2,6.8c0.4,0.7,0.8,1.4,0.6,2.2
		C267,269.4,266.9,269.6,266.7,269.7z"/>
	<path class="st2" d="M260,265.3c-0.1,0.2-0.3,0.3-0.5,0.4c-0.2,0.1-0.5,0.1-0.7,0.1c-1.2,0-2.3-0.2-3.5-0.3
		c-0.3-0.1-0.6-0.1-0.8-0.3c-0.3-0.2-0.4-0.5-0.3-0.9c0.1-0.4,0.7-0.6,0.9-1c0.3-0.5,0.4-1.1,0.5-1.7c0.2-0.5,0.8-2.2,1.5-1.3
		c0.2,0.2,0.2,0.5,0.3,0.7c0.4,1.2,1.1,2.3,2,3.2c0.3,0.3,0.6,0.6,0.5,1C260,265.2,260,265.2,260,265.3z"/>
	<path class="st2" d="M301,292.9c-3.5-1.2-7-3-10.3-4.8c-6.4-3.4-8.2,2.3-8.8,7.7c-0.4,3.7,0.1,7.5,1.4,11.1
		c1.2,3.4,4.8,6.2,5.1,9.8c0.1,1.7-0.2,4.1,1.5,4.5c1.4,0.3,2.3-1.3,3.3-2.4c2-2.2,5.2-2.6,8-3.6c5-1.7,9.3-6.3,9.5-11.6
		C310.8,298.7,306.3,294.6,301,292.9z"/>
	<path class="st2" d="M292.9,312.1c-0.1,0-0.1-0.1-0.2-0.1c-1.4-0.6-2-2.9-2.8-4.2c-0.7-1-1.4-2-1.7-2.8c-1.2-3.3-2-7.5-0.8-10.8
		c1-2.7,4.1,0.4,5.8,1.2c2,1,4.1,1.9,6.2,2.6c3.4,1.1,6,3.5,5.9,5.4c-0.1,2.8-2.6,5.7-5.9,6.8c-0.5,0.2-1.2,0.4-1.8,0.5
		C296.2,311.1,294.4,312.7,292.9,312.1z"/>
	<path class="st2" d="M293.9,309c-1.2-0.3-1.2-1.8-1.8-2.6c-0.5-0.6-1.2-1.8-1.4-2.2c-0.5-1.4-0.9-2.9-1.1-4.5
		c-0.1-0.6-0.4-2.5,0.3-2.8c0.6-0.4,3.6,1.6,4.3,1.9c2,0.8,4,1.7,5.9,2.5c1,0.4,2,0.9,2.3,1.8c0.3,0.7,0,1.6-0.5,2.2
		c-0.5,0.6-1.2,1.1-1.9,1.4c-1.3,0.7-2.6,1.4-4,1.9C295.3,308.9,294.6,309.1,293.9,309C294,309,293.9,309,293.9,309z"/>
	<path class="st2" d="M400.7,310.5c-6.2-7-10.5-17.7-5.4-25.6c2.5-3.9,6.8-6.2,10.3-9.1c9.7-7.9,14.7-22.2,9.5-33.5
		c-5.2-11.4-21.9-16.3-31-7.9c-5.6,5.3-7,9.6-14.3,11.8c-5.5,1.7-12.8,1.4-15.6,7.6c-1.8,4.1-1.1,10.5-5.4,11.8
		c-1.2,0.4-2.5,0.1-3.7-0.3c-11.4-3.3-18.6-14.3-28.8-20.3c-3.7-2.2-8.2-3.7-12.4-2.8c-4.2,1-7.9,5.2-7,9.6c0.8,4.1,4.9,6.3,8,9
		c6.3,5.6,9,14.2,14.5,20.5c5.1,5.9,12.4,9.6,18.3,14.6c18.7,15.8,4.1,38.9-18.3,33.4c-1.3-0.3-2.6-0.7-3.9-0.6
		c-9.6,0.8,7,8.9,7.5,10.2c1.3,3.2,1,6.8,1.8,10.1c1.6,6.2,7,10.8,12.9,13.1c5.9,2.4,12.3,2.8,18.6,3.3c11.3,1,21.5,5.9,32.9,5.4
		c10.2-0.4,20.9-4.5,26.9-12.9c5.3-7.4,6.3-17.8,2.5-26.1C414.9,323.2,406.8,317.5,400.7,310.5z"/>
	<path class="st2" d="M392,365.2c-1,0.1-1.9,0.2-2.9,0.2c-5.9,0.3-11.6-1.1-17.6-2.6c-4.7-1.1-9.5-2.3-14.7-2.8l-1.1-0.1
		c-5.8-0.5-11.2-1-16-2.9c-5.1-2-8.7-5.6-9.7-9.5c-0.8-3.1-2.6-7.4-1-10.7c2.5-5,8.5-3.4,12.5-6.2c4.3-3,7.7-7.4,9.1-12.4
		c2.7-9.3-0.8-19.2-9.6-26.5c-2.4-2-5-3.8-7.4-5.6c-3.9-2.7-7.5-5.2-10.3-8.4c-2.1-2.4-3.7-5.2-5.5-8.3c-2.6-4.4-5.3-9-9.5-12.7
		c-0.8-0.7-1.6-1.3-2.4-2c-1.8-1.4-3.7-2.9-4-4.2c-0.2-1,1.2-2.8,3-3.3c0.2-0.1,0.5-0.1,0.7-0.1c2.2-0.3,4.9,0.5,7.9,2.3
		c3.6,2.1,7,5.1,10.5,8.2c5.7,5.1,11.6,10.4,19.6,12.7c1.3,0.4,3.1,0.8,5.1,0.5c0.5-0.1,1.1-0.2,1.5-0.3c5.9-1.8,7.1-7.6,7.8-11.2
		c0.3-1.3,0.5-2.7,0.9-3.5c1-2.1,3.1-2.7,7.8-3.6c1.5-0.3,3-0.6,4.5-1.1c6.5-2,9.5-5.4,12.4-8.8c1.2-1.3,2.4-2.7,3.9-4.2
		c1.6-1.5,3.7-2.5,6.2-2.8c6.5-0.8,13.7,3.2,16.4,8.9c1.9,4.2,2.1,9.2,0.6,14.3c-1.5,5-4.6,9.6-8.6,12.9c-0.9,0.7-1.8,1.4-2.8,2.1
		c-3,2.1-6.3,4.6-8.7,8.2c-4.3,6.7-5.3,19.2,5.9,32c2.1,2.4,4.3,4.6,6.5,6.7c4.4,4.3,8.5,8.3,10.8,13.2c3,6.6,2.2,14.9-2,20.7
		C408,360.4,400.7,364.1,392,365.2z"/>
	<path class="st2" d="M390.5,360.2c-4.2,0.2-8.6-0.5-12.8-1.2c-9.6-1.5-19.1-3.1-28.6-4.6c-3.6-0.6-10.4-2.7-13.1-5.1
		c-2-1.8-2.7-5.3-0.7-7.1c1.1-1,2.6-1.2,4-1.5c8.6-1.9,15-9.1,17.2-17.5c2.5-10-0.7-20.8-6.7-29.1c-4.8-6.6-14-11.5-20.5-16.4
		c-0.8-0.6-1.7-1.3-2.1-2.2c-0.4-1-0.2-2.3,0.7-2.8c1.3-0.6,2.6,0.5,3.6,1.5c6.4,6.1,17.2,5.8,24.5,1.5c4.4-2.6,6-6.7,9.2-10.3
		c1.6-1.9,3.7-3.3,5.8-4.6c5.5-3.7,11-7.4,16.4-11.2c3.6-2.4,7.9-5,11.9-3.6c3.8,1.3,5.8,5.9,5.3,10c-0.5,4.1-3.1,7.5-6,10.4
		c-2.9,2.8-6.3,5.2-9.1,8.1c-5.5,5.6-8.8,13.3-9.2,21.1c-0.4,7.9,2.2,15.9,7.1,22c4.2,5.2,9.9,9,14.4,14c4.5,5,7.8,12.1,5.5,18.4
		c-1.9,5.3-7.3,8.8-12.8,9.8C393.1,360,391.8,360.2,390.5,360.2z"/>
	<path class="st2" d="M396.5,352c-1.8,0.1-3.7-0.1-5.5-0.3c-11.1-1.2-22.1-2.4-33.2-3.6c-1.2-0.1-2.5-0.3-3.3-1.3
		c-0.9-1.1-0.6-2.9,0.3-4c0.9-1.1,2.2-1.8,3.4-2.6c12.2-7.7,13.9-23.5,9.8-36.3c-1.1-3.3-2.5-6.5-4.2-9.6
		c-1.5-2.8-11.1-7.5-3.6-10.9c1.4-0.7,3.1-0.7,4.6-1.1c4.6-1.2,6.8-6.5,9.7-9.9c3-3.5,6.7-6.2,10.4-8.8c3.3-2.2,8.8-4.2,11.2-7.2
		c0.7-0.9,1.4-1.9,2.3-2.6c1-0.6,2.4-0.7,3.1,0.2c0.5,0.6,0.4,1.6,0.1,2.4c-0.4,0.7-1,1.3-1.6,1.9c-5.8,5.2-12.2,9.9-16.4,16.5
		c-3.9,6-6.2,13-6.6,20.2c-0.5,9.8,2.7,19.8,8.8,27.4c2.7,3.4,5.8,6.1,8.8,8.8c2.2,1.9,4.2,3.7,5.9,5.6c3.6,4.1,6.6,11.1,0.1,14.2
		C399.3,351.6,398,351.9,396.5,352z"/>
	<path class="st2" d="M395.3,343.5c-1.3,0.2-2.8-0.1-3.7,0c-4.4,0.2-8.7,0.5-13.1,0.7c-3.3,0.2-7.1,0.7-10.3-0.1
		c-1.1-0.3-2.2-1.2-2.2-2.4c-0.1-1.2,1.4-2.5,2-3.5c1-1.7,1.9-3.5,2.6-5.3c1.3-3.1,2.1-6.3,2.7-9.6c0.4-2,1-7.1,3.5-7.4
		c3.4-0.4,3.9,7.2,5.4,9.2c3.5,4.6,8,8.8,12.4,12.4c1.1,0.9,2.1,1.8,2.5,3C398,342.7,396.8,343.4,395.3,343.5z"/>
	<path class="st2" d="M393.4,340.2c-0.2,0.5-1,0.7-1.6,0.7c-3.7,0.2-7.4,0.3-11.1,0.5c-2.9,0.1-5.9,1.1-8.9,0.8
		c-2-0.2-1.9-0.7-1.2-2.5c0.5-1.3,1.2-2.6,1.8-3.8c1-2.2,1.7-4.6,2.4-6.9c0.4-1.5,0.4-5.1,2.1-5.9c2-1,3.3,2.3,4,3.6
		c2.8,4.9,6.8,9,11.6,11.9C392.9,338.9,393.7,339.5,393.4,340.2z"/>
	<path class="st2" d="M382.4,337.1c-1.5,0.1-5.2,1.8-6.4,0.6c-1.4-1.3,0.2-3.9,1-5.1c1.6-2.7,3.4,0.9,4.8,2.2
		C382.1,335.1,384,337,382.4,337.1z"/>
	<path class="st2" d="M371.2,298.9c-2.4,1.1-2.1-4.8-3.4-7.1c-0.8-1.5-4.5-0.7-3.6-4c0.8-3.2,0.9-0.2,1.4-0.3c3.9-1,5.3-6.9,8.4-6.1
		c3.1,0.9-2.5,8.9-2.7,13.5C371.2,296.2,373.6,297.8,371.2,298.9z"/>
	<path class="st2" d="M426.1,322.7L426.1,322.7c-0.8,0.8-1.1,2-1,3.1c0.4,4,3.1,8,4.5,11.6c1.7,4.3,3.2,8.7,4.4,13
		c2.6,9.1,6.1,20.6,4.8,30.1c-0.3,2.1-0.5,4.5,1,6c1.7,1.6,4.4,1,6.5-0.1c4.9-2.4,7.6-6,11.1-9.9c3.6-4.2,8.8-7.2,13.1-10.5
		c1.9-1.4,3.9-3.4,3.3-5.7c-0.6-2.2-3.2-2.9-5.4-3.4c-17.3-4.3-26-20.9-37.7-32.8C429.6,322.9,427.8,321.2,426.1,322.7z"/>
	<path class="st2" d="M441.7,380.9c-0.2-1.4,0.2-3,0.2-4.3c0-3-0.3-5.9-0.7-8.9c-0.9-5.7-2.5-11.3-4.1-16.8l-0.4-1.3
		c-1.6-5.6-3.6-10.9-5.9-16.2c-0.2-0.5-0.5-1.2-0.2-1.7c1.1-1.7,6.4,3.3,7.1,4.2c4,4.9,8.1,9.8,12.8,13.9c5.3,4.6,10.7,7,17.2,9.3
		c0.8,0.3,1.5,0.8,1.9,1.6c0.5,1.2,0,2.7-0.9,3.6c-1.7,1.7-4.4,2.8-6.3,4.3c-2.4,1.8-4.8,3.7-6.9,6c-0.4,0.5-0.8,0.9-1.2,1.4
		c-2,2.3-4.5,5.6-7.2,7.1c-1.3,0.7-3.1,0.9-4.3-0.1C442.1,382.5,441.8,381.8,441.7,380.9z"/>
	<path class="st2" d="M444.3,371.5c-0.7-0.4-1.2-1.7-1.3-2.4c-0.4-2.4,1-4.8,0.6-7.2c-0.8-4.9-3.7-9.1-5.2-13.8
		c-0.2-0.7-0.4-1.4-0.4-2.1c0-0.7,0.3-1.4,0.8-1.9c2.1-1.7,4,1.8,4.9,3.2c1.6,2.5,4,4.3,6.5,5.7c2.3,1.3,4.8,1.9,7.2,3
		c1.6,0.7,2.2,2.5,0.3,3.4c-2.3,1.1-4.3,2.1-6.2,3.9c-0.8,0.8-1.6,1.7-2.4,2.6c-0.7,0.9-1.2,2.2-2,3c-0.4,0.8-1.2,2.7-2.3,2.7
		C444.7,371.6,444.5,371.6,444.3,371.5z"/>
	<path class="st2" d="M93,385.7c-8.4,5.9-18.1,9.9-28.2,11.4c-20.5,3.1-35.4-5-52.6-14.6c-19.3-10.8-12.1-25.2-2.6-41.9
		c9.8-17.3,12.2-38.4,7.8-57.7C12.7,263-6.1,246.8,3.8,225.1c6.7-14.8,25.6-21.6,40.4-24c3.4-0.5,7.2-0.7,10,1.2
		c3.3,2.3,4.2,6.8,5.2,10.7c2.2,8.9,13.4,16.3,22.4,14.7c5.8-1,11.5-4.8,17.1-3c7.4,2.2,9.2,12.1,15,17.4c8,7.2,22.4,4.8,28.3,13.8
		c4.3,6.5,1.4,15.3,2.9,23c3.9,20.7,36,25.8,39.9,46.5c1.9,9.9-4.9,20.8-14.6,23.3c-14.6,3.8-32.8-14.4-45.2-3.8
		c-5.5,4.7-8.2,11.9-11.7,18.3C108.5,372.1,101.4,379.8,93,385.7z"/>
	<path class="st2" d="M56.1,392.5c-15.3,0-27.9-7.1-41.3-14.6c-5.2-2.9-8.1-6-9.1-9.5c-1.7-6.4,2.8-15.1,8.5-25
		c10.2-17.9,13.3-40.4,8.3-61.6c-1.7-7.3-5.1-14-8.3-20.5c-5.9-11.8-11-21.9-5.6-33.9c6.9-15.2,29.6-19.9,36.4-20.9
		c1.3-0.2,2.4-0.3,3.3-0.3c1.3,0,2.3,0.2,2.9,0.6c1.4,1,2.2,4,2.9,6.8l0.2,0.9c2.6,10.3,14.1,19,25.1,19c1.1,0,2.3-0.1,3.3-0.3
		c2.4-0.4,4.6-1.1,6.7-1.9c2.4-0.8,4.6-1.5,6.5-1.5c0.6,0,1.1,0.1,1.5,0.2c2.5,0.7,4.3,3.8,6.4,7.3c1.7,2.9,3.7,6.3,6.6,8.9
		c4.6,4.2,10.5,5.7,15.6,7c5.2,1.3,9.7,2.5,11.8,5.7c1.7,2.7,1.7,6.5,1.6,10.9c-0.1,3.3-0.2,6.6,0.5,10.1
		c2.4,12.5,12.8,20,22.1,26.6c8.3,6,16.3,11.6,17.8,19.9c1.4,7.2-3.7,15.3-10.7,17.1c-1,0.3-2,0.4-3.1,0.4c-4.3,0-9.1-1.8-14.3-3.6
		c-5.6-2-11.4-4.1-17.2-4.1c-4.9,0-9.2,1.5-12.8,4.6c-5.1,4.3-7.9,9.9-10.7,15.4c-0.8,1.5-1.5,3-2.3,4.4c-4.5,8.1-11,15.3-18.8,20.8
		c-7.9,5.5-16.8,9.1-26,10.5C61.3,392.2,58.7,392.5,56.1,392.5z"/>
	<path class="st2" d="M56.1,384.1c-10.3,0.3-20.7-2.3-29.6-7.5c-4.1-2.4-8.1-5.6-10.1-9.9c-3.3-6.9-0.3-12.7,3.5-18.3
		c3.8-5.4,6.4-11.4,8.4-17.8c5.2-16.3,5.8-34.1,1.9-50.7c-2-8.3-5.5-15.4-9-22.2c-6.1-12.1-9.1-18.9-5.4-27
		c2.6-5.8,9.1-9.6,14.1-11.7c4-1.8,10.9-5,15.4-3.2c3.2,1.2,3.2,2.8,4.3,5.7c1.7,4.6,3.1,7.4,7.2,11c6.2,5.4,14.3,8.9,22.5,8.9
		c5.4,0,10-4.1,15.4-1.5c4.8,2.3,6.6,7.8,9.8,11.7c3.9,4.7,8.3,6.5,14.2,7.4c4.8,0.7,10.1,2,12.3,6.4c1.4,2.8,1.1,6,1.1,9.2
		c0.1,17.7,12,29.1,25.2,38.6c4.4,3.2,10.8,6.9,13.5,11.7c1.7,3,1.6,7.3-1.1,9.4c-2.6,2.1-6.4,1.3-9.7,0.4
		c-14.7-4.2-30-11.2-43.4,0.2c-9,7.6-11.5,18.8-18.3,27.8c-7.2,9.4-17.5,16.5-28.8,19.8C65.1,383.3,60.6,384,56.1,384.1z"/>
	<path class="st2" d="M54.5,381.5c-9.5,0-18.7-2.5-26.8-7.2c-4.6-2.7-7.6-5.6-9.1-8.8c-2.5-5.3-0.7-9.8,3.3-15.6
		c3.6-5.3,6.4-11.2,8.8-18.5c5.3-16.7,6-34.8,2-52.2c-2-8.6-5.6-15.8-9.2-22.8c-7.5-15-10.1-27.4,7.4-36.2
		c4.4-2.2,10.1-2.5,13.9,0.6c1.3,1.1,2.3,2.4,3.3,3.7c8.2,11.2,16.2,19.4,31.1,19.4c2.5,0,4.8-0.7,6.8-1.3c1.7-0.5,3.3-1.1,4.9-1.1
		c1,0,1.8,0.2,2.6,0.6c2.5,1.2,4.2,3.8,5.9,6.5c1,1.5,1.9,3,3.1,4.4c4.9,5.9,10.5,7.5,15.8,8.3c4.2,0.7,8.8,1.8,10.3,4.9
		c0.9,1.7,0.8,4,0.8,6.4c0,0.5,0,1.1,0,1.5c0.1,19.4,13.4,31.5,26.3,40.8c0.8,0.6,1.6,1.2,2.5,1.8c3.9,2.7,8.2,5.7,10.2,9.1
		c1.1,1.9,1.2,4.8-0.4,6c-0.6,0.5-1.5,0.7-2.6,0.7c-1.5,0-3.2-0.4-4.8-0.9c-1.8-0.5-3.7-1.1-5.6-1.7c-7.1-2.2-14.4-4.4-21.6-4.4
		c-7.2,0-13.3,2.2-18.7,6.8c-5.8,4.9-9,11.1-12.1,17.1c-2.1,4-4,7.7-6.6,11.1c-7,9.1-16.7,15.8-27.5,18.9c-4.1,1.2-8.4,1.8-12.8,2
		C55.5,381.5,55,381.5,54.5,381.5z"/>
	<path class="st2" d="M56.1,371.7c-7.4,0.1-14.9-1.6-21.9-5.1c-2.6-1.3-5.2-3-6.1-5.8c-0.8-2.3-0.3-4.9,0.9-7
		c1.8-3.3,9.6-17.3,10.9-21.5c4.9-15.3,6.1-31.8,3.8-47.7c-1-6.9-2.8-13.8-4.9-20.5c-1.8-5.9-6.6-9.8-9.3-15.2
		c-2.4-4.8-3.3-10.6-1.2-15.5c2.1-4.9,7.8-8.4,12.9-6.9C46.2,228,48.9,233,52,237c4.9,6.2,11.6,9.9,18.8,12.4
		c6.9,2.3,14.3-2,20.9,0.7c5.8,2.5,7.7,10.3,13.1,13.5c4.3,2.6,10,1.8,14.2,4.5c4.5,3,5.8,9.1,7.4,14.4c3.2,10.1,9.6,19.3,17.9,25.7
		c1.9,1.4,4,2.8,5.1,4.9c1.2,2.1,1.1,5.2-1,6.5c-3.4,2.2-8.6-2-12-2.6c-5-0.9-10.1-0.3-14.8,1.4c-11,4.1-19,15.7-24.3,25.8
		c-2,3.8-3.6,7-5.9,9.9C82.8,365.5,69.6,371.6,56.1,371.7z"/>
	<path class="st3" d="M55.7,364c-1.2,0.1-2.5,0.1-3.7-0.1c-3.6-0.2-7.6-1.2-9.8-4.2c-1.9-2.5-2.2-6-1.5-9.1c0.7-3.1,2.2-5.9,3.5-8.8
		c13.9-29.5,11.7-66.2-5.6-93.8c-1.1-1.8-2.3-3.6-2.9-5.6c-0.6-2-0.4-4.4,1-6c6-7,10.8,7.3,13.6,10.3c5.9,6.3,15,10.8,23.7,10.5
		c5.6-0.2,11.7-0.7,16.3,2.5c3.9,2.7,5.8,7.5,9.8,10.1c3.6,2.3,8.3,2.4,12.1,4.5c4.8,2.7,6.3,7.6,8.3,12.4c2.3,5.5,6,10.5,9.1,15.5
		c0.9,1.4,1.8,3.1,1.2,4.7c-1.4,3.8-8.2,2.8-11.2,3.6c-5,1.3-9.5,4.3-13.2,7.9c-5.6,5.4-9.6,12.2-13.7,18.9
		C84.2,351.2,72,363.3,55.7,364z"/>
	<path class="st2" d="M57.9,359.5c-3.9-0.5-6-3.7-3.9-9.1c3.2-8,6.6-15.5,8.4-24.1c2.2-10.5,2.7-21.3,1.8-31.9c-0.8-9-3-17-5.6-25.6
		c-0.5-1.5-0.9-3.3,0.2-4.5c1.2-1.3,3.3-0.9,5-0.3c4.3,1.5,7.5,3.7,12.1,3.6c5.4-0.1,10.2,0.3,14.8,3.7c3.2,2.5,5.7,5.9,9.1,8.1
		c3.2,2,7.1,2.8,10.3,4.9c5.5,3.5,15.3,14.9,10.6,21.7c-2,2.9-5.4,4.5-8.6,5.9c-4.8,2-10,4.9-13.1,9.2c-4.9,6.9-8.3,14.6-13.7,21.3
		c-5.8,7.1-13.1,13.2-21.6,16.3C61.5,359.5,59.5,359.8,57.9,359.5z"/>
	<path class="st2" d="M59.1,356.9c-0.3,0-0.6,0-0.9-0.1c-0.7-0.1-1.7-0.4-2.2-1.2c-0.5-0.9-0.4-2.5,0.4-4.3c0.5-1.4,1.1-2.7,1.6-4.1
		c2.7-6.7,5.4-13.1,6.9-20.5c2.2-10.4,2.9-21.4,1.9-32.7c-0.4-4.1-1.7-7.9-2.9-11.8c-1-3-4.1-10.1-2.7-13.2
		c1.5-3.3,10.6,1.2,14.3,1.2c0.1,0,0.3,0,0.4,0c0.5,0,1,0,1.4,0c4.5,0,8.2,0.5,11.7,3.2c1.3,1,2.5,2.1,3.7,3.4
		c1.7,1.7,3.4,3.4,5.5,4.8c1.8,1.2,3.8,1.9,5.6,2.7c1.7,0.7,3.3,1.3,4.7,2.2c3.5,2.2,9.3,8.4,10.4,13.7c0.4,1.7,0.2,3.1-0.6,4.2
		c-1.6,2.3-4.4,3.6-7.4,5c-4.3,1.9-10.6,4.9-14.3,10.1c-2.2,3-4.1,6.2-5.9,9.3c-2.4,4.2-4.8,8.1-7.7,11.7
		c-6.3,7.6-13.1,12.9-20.5,15.5C61.5,356.7,60.2,356.9,59.1,356.9z"/>
	<path class="st2" d="M67.9,344.3c-3-1.6,3.6-10.4,4.8-15.7c2.4-11.2,3.1-23,2-35c-0.3-3.6-1.3-7.9-3.1-11.1c-0.7-1.3-1.2-3-0.1-4.1
		c0.9-0.9,2.4-0.6,3.5-0.3c3.2,1,6.4-0.4,9.3,1.8c0.8,0.6,1.8,1.6,2.9,2.7c1.9,1.9,4,4,6.9,5.9c2.5,1.5,4.9,2.5,7,3.4
		c1.4,0.6,2.6,1.1,3.4,1.5c2.1,1.3,6.3,4,5.2,7c-1.1,2.8-7.1,4.3-9.6,5.8c-3.7,2.3-7.2,5.1-9.8,8.8c-2.4,3.3-4.3,6.7-6.2,9.9
		c-2.4,4.1-4.4,7.6-7,10.7C74.5,338.8,71,345.9,67.9,344.3z"/>
	<path class="st2" d="M80.9,315.5c-1.2-0.1-1.8-1.1-2.2-2.2c-0.7-2.7,0.1-5.8,0.5-8.5c0.5-3.8,1.9-7.5,1.6-11.3
		c-0.1-2-0.8-3.4-1.7-5c-0.9-1.5-1.2-2.3,0.6-3.2c4-2,5.9,5.8,10.3,8.6c1.8,1.1,10.5,0.6,9.5,4.6c-0.1,0.4-0.4,0.7-0.7,1
		c-1.3,1.1-3,1.5-4.4,2.5c-1.5,1-3.1,2.2-4.5,3.4c-1.7,1.4-3.3,3-4.8,4.6c-0.7,0.8-1.6,1.7-2.1,2.6c-0.8,1.4,0.5,3-1.8,3
		C81.1,315.5,81,315.5,80.9,315.5z"/>
	<path class="st2" d="M219.4,139.8c-3.4-6.2-11-10.8-10.9-17.9c0.1-4.1,2.7-7.5,4.5-11.2c7.2-14.7-1.2-32.2-15.2-39.5
		c-7.6-4-15.8-1.9-23.2-5.5c-8.2-4-13.3-12.4-19.8-18.5c-4.9-4.5-10.7-7.9-16.9-9.9c-12.7-4.1-37.9-0.6-39.4,16.9
		c-0.5,5.4,2.1,10.8,6,14.5c9.3,8.7,31.4,11.6,28.9,29.6c-0.6,4.1-3,8-2.3,12c1.1,6.6,9,9.1,13.4,14c4.2,4.6,5.2,11.4,4.8,17.7
		c-0.3,6.2-1.7,12.5-1.5,18.7c0.3,8.2,3.8,16.6,10.5,21.4c6.6,4.8,16.4,5.3,22.7,0.1c6.3-5.2,8.8-15.3,16.6-17.6
		c3.1-0.9,6.4-0.4,9.6-0.7C217.6,162.7,224.4,149.2,219.4,139.8z"/>
	<path class="st2" d="M170.1,180.8c-3.1,0-6.3-1-8.8-2.8c-4.9-3.6-8-10-8.2-17.3c-0.1-3.4,0.3-6.8,0.7-10.5c0.3-2.5,0.6-5.1,0.7-7.8
		c0.5-9.2-1.6-16.5-6.2-21.6c-2-2.1-4.3-3.8-6.4-5.3c-3.4-2.4-5.4-4.1-5.8-6c-0.2-1.3,0.3-3,1-5c0.5-1.6,1.1-3.4,1.4-5.4
		C140.9,83,127.7,76.1,118,71c-4-2.1-7.7-4-10-6.2c-3-2.8-4.6-6.6-4.4-10.1c0.4-4.3,2.7-7.5,7.2-10c4.2-2.3,10-3.6,16-3.6
		c3.5,0,6.8,0.5,9.4,1.3c5.5,1.8,10.7,4.8,14.9,8.8c2,1.8,3.9,4,5.9,6.2c4.3,4.9,8.8,10,15.2,13.1c4.4,2.1,8.9,2.6,12.9,3
		c3.7,0.4,7.2,0.8,10.2,2.4c11.1,5.8,18.9,20.2,12.9,32.4c-0.4,0.7-0.8,1.5-1.3,2.4c-1.7,3.1-3.7,6.7-3.7,11.1
		c-0.1,6.6,4.1,11.4,7.4,15.2c1.6,1.9,3.2,3.6,4.1,5.4c1.5,2.8,1.4,6.6-0.4,10.1c-1.7,3.5-4.7,5.8-7.9,6.2c-1,0.1-2,0.1-3.2,0.2
		c-2.2,0-4.6,0.1-7.2,0.8c-6.5,1.9-10,7.3-13.2,11.9c-1.7,2.6-3.4,5.1-5.3,6.7C175.7,179.9,173,180.8,170.1,180.8z"/>
	<path class="st3" d="M164.8,172.6c-0.6,0.1-1.2,0.1-1.8,0c-4.9-1-7.1-8-7.2-12.3c-0.1-2.7,0.3-5.7,0.7-9.2c0.3-2.7,0.6-5.4,0.8-8.4
		c0.3-6.4-0.4-13-2.9-19c-2.8-6.6-8.1-9.9-12.6-14.8c-1.1-1.2-1.8-2.7-1.8-4.2c0-2.3,1.5-4.2,1.7-6.4c0.3-2.4-0.1-5.2-0.5-7.5
		c-1-5.9-3.9-11.3-8-15.5c-6.5-6.8-15.3-10.1-23.2-15c-1.7-1.1-3.5-2.5-3.6-4.4c-0.1-1.4,0.9-2.8,2.1-3.6c3.5-2.4,8.9-3,13-3
		c2.6,0,5.2,0.3,7,0.9c4.4,1.4,8.6,3.8,12,7c1.7,1.5,3.4,3.6,5.3,5.7c4.6,5.2,9.9,11.2,17.7,15c5.6,2.7,11,3.3,15.4,3.8
		c3.1,0.3,5.7,0.6,7.4,1.5c7.5,4,13.3,13.8,9.4,21.7c-0.3,0.6-0.7,1.3-1.1,2c-2,3.6-4.7,8.4-4.8,15c-0.1,4.8,1.4,9.1,3.7,13.1
		c0.8,1.4,1.5,3,2.6,4.1c1.5,1.6,3.5,2.3,4.7,4.3c1.3,2,1.4,5.1-0.4,6.7c-1.6,1.4-3.9,1.2-6,1.3c-8.4,0.2-16.6,4.9-21.1,12
		c-1.4,2.1-2.4,4.5-4.1,6.4C168.4,171.2,166.6,172.4,164.8,172.6z"/>
	<path class="st2" d="M164.1,163.4c-0.4,0-0.8-0.1-1.2-0.2c-3.5-1.4-3.2-6.2-3.1-7.9c0.2-2.4,0.8-4.6,1.5-6.7
		c0.6-1.9,1.2-3.7,1.3-5.5c0.4-8.1-0.7-15.2-3.3-21.4c-1.3-3.1-3.3-6.1-5.8-8.9c-0.5-0.6-1.3-1.3-2.2-2c-1.7-1.4-3.7-3.1-4.6-5.3
		c-1-2.3-0.5-4.4-0.1-6.1c0.2-0.6,0.3-1.2,0.3-1.7c0.2-2.2,0.1-4.6-0.4-7.6c-0.8-5.2-4.6-8.9-9-13.2c-1-1-2-1.9-2.9-2.9
		c-0.1-0.1-5.8-6.8-4.3-11.1c0.5-1.5,1.8-2.5,3.5-2.7c0.2,0,0.4-0.1,0.6-0.1c1.5,0,2.7,0.7,3.5,1.2c0.5,0.3,0.9,0.5,1.4,0.8
		c2.3,1.3,4.6,2.7,6.5,5c1,1.2,1.8,2.3,2.7,3.6c0.6,0.8,1.2,1.6,1.7,2.3c3.8,4.9,7.4,8,11.2,9.8c6.4,3.1,12.6,3.8,17.2,4.3
		c5.1,0.6,11.5,2.7,12.7,9.9c0.8,5-1.6,9.6-3.6,13.2c-2,3.7-2.7,6.8-2.8,11.7c-0.1,3.8,0.8,7.6,2.6,11.6c0.2,0.3,0.6,1.1,1.1,1.8
		c1.8,2.9,4.1,6.6,3.2,9.6c-0.3,1.2-1.2,2.2-2.3,2.8c-1.3,0.7-2.6,0.7-3.8,0.7H185h-0.3c-3,0.1-6.4,1.8-10.3,5.5
		c-0.3,0.3-1.2,1.5-1.9,2.4c-2.6,3.5-4.6,6-6.5,6.9C165.2,163.3,164.7,163.4,164.1,163.4z"/>
	<path class="st2" d="M164.7,160.6c-0.3,0.2-0.6,0.2-0.8,0.1c-1.7-0.7-1.5-3.8-1.5-5.2c0.3-4.2,2.6-8.1,2.8-12.3
		c0.4-8.5-0.7-16.1-3.5-22.6c-1.5-3.6-3.7-6.8-6.2-9.7c-1.8-2.1-5.4-4-6.4-6.5c-0.9-2.2,0.2-4.4,0.4-6.6c0.3-2.7,0-5.6-0.4-8.3
		c-1.2-7.3-7.2-12-12.6-17.6c-1-1-6.3-8.8-2.3-9.3c0.8-0.1,1.6,0.4,2.4,0.8c2.6,1.6,5.3,2.9,7.2,5.2c1.5,1.8,2.9,3.9,4.4,5.8
		c3.3,4.3,7.2,8.3,12.2,10.6c6.8,3.3,13.3,4,17.9,4.5c4.8,0.5,9.4,2.3,10.4,7.7c0.7,4-1.4,7.9-3.3,11.5c-2.4,4.4-3.1,8-3.2,12.9
		c-0.1,4.5,1.1,8.7,2.9,12.8c1,2.2,6.5,9,3.2,10.7c-1.1,0.5-2.4,0.4-3.6,0.4c-4.6,0.1-8.8,3.2-12,6.2
		C171.2,153,166.9,159.5,164.7,160.6z"/>
	<path class="st2" d="M169.1,146.5c-0.2-0.2-0.4-0.4-0.5-0.9c-0.2-0.7,0.2-1.5,0.5-2.2c2.3-4.8,1.5-9.6,0.9-14.6
		c-0.6-4.5-1.7-8.9-3.5-13c-1.3-3.1-3.1-6-5.2-8.7c-2-2.5-5.3-4.2-6.7-7c-1.2-2.2-0.1-4.3,0.1-6.6c0.3-2.9-0.1-6.1-1.4-8.8
		c-0.4-0.7-0.9-1.5-0.7-2.4c0.1-0.6,0.6-1.1,1.2-1.3c2.2-0.5,5.3,4.1,7.1,5.2c5.4,3.3,11.7,3.6,17.8,4.3c6.1,0.7,6.5,3,6.7,4.2
		c0.4,2.6-1.3,5.8-2.9,8.7c-3,5.4-3.6,9.9-3.6,15c-0.1,3.3,0.5,6.5,1.4,9.7c0.7,2.5,4.9,7.3,4.5,9.6c-0.2,1.2-1.2,2.1-2.3,2.5
		c-1.5,0.6-3.2,0.4-4.7,1c-1.9,0.7-3.8,1.8-5.3,3.3C171.8,145,170.1,147.4,169.1,146.5z"/>
	<path class="st2" d="M176,137.4c-0.4-0.3-0.8-0.8-0.9-1.4c-1.3-7.3-1.3-14.4-4.3-21.4c-1.3-3-3-6-5-8.6c-1-1.3-2.1-2.6-3.3-3.7
		c-2.3-2.2-4-3.7-3.9-7.3c0.1-1.3,0.7-2.7,2-3.1c0.8-0.3,1.8-0.1,2.6,0.1c3.9,0.9,7.8,1.9,11.6,2.8c1.6,0.4,3.3,0.5,4.9,0.8
		c1.4,0.2,2.5,0.6,1.6,2.5c-3.1,6.1-5.6,11.9-6,18.9c-0.2,4.2,0.2,8.4,1.4,12.4c0.5,1.9,2.2,4.3,2.3,6.1
		C179.1,136.9,177.5,138.4,176,137.4z"/>
	<path class="st2" d="M432.1,35.5c-3.7-6.4-9.6-11.2-15.8-15.1C384.1-0.4,343.4-3,305.6,2.5c-7.9,1.2-16,2.8-22.6,7.3
		c-8,5.4-13.1,15.1-13.1,24.9c0.1,17.7,20.7,27.1,20.1,43.6c-0.4,10.4-6,20.2-3,30.8c1.6,5.7,6.6,10.5,6.4,16.5
		c-0.2,7-7.3,11.6-10,18.1c-5.9,13.9,9.8,31.2,2.1,44.2c-2.4,4-6.4,6.5-9.6,9.9c-3.1,3.4-5.2,8.8-2.5,12.6
		c4.7,6.8,15.7-0.1,23.4,2.7c5.7,2.1,8.2,9.1,13.6,12.1c6.1,3.5,14.4,0.4,18.4-5.4c4-5.8,4.6-13.4,3.6-20.4
		c-0.8-5.9-2.6-11.7-6.2-16.4c-5.7-7.4-16.1-12.8-15.9-22.3c0.1-9,10.5-15.6,10.2-24.6c-0.2-8.8-10.3-15.2-10-23.9
		c0.2-3.4,2-6.6,4.3-9.1c10.3-10.5,27.8-6.7,40.8,0.1c13,6.7,26.1,16,40.6,14.3c13.1-1.5,24.4-13.1,25.6-26.4
		c0.7-7.4-1.3-15.2,1.9-21.8c2.3-4.7,6.9-7.9,9.4-12.5C436.8,50.3,435.8,41.9,432.1,35.5z"/>
	<path class="st2" d="M317.5,221.3c-1.2,0-2.2-0.3-3.1-0.7c-1.6-0.9-3.1-2.7-4.6-4.5c-2.5-2.9-5.3-6.3-9.7-7.9c-1.9-0.7-4-1-6.4-1
		c-2.4,0-4.6,0.3-6.9,0.6c-1.8,0.3-3.5,0.5-5,0.5c-2.1,0-2.4-0.5-2.6-0.8c-0.7-1.1,0.3-3.9,2.1-5.9c1-1.1,2.1-2.1,3.3-3.2
		c2.4-2.1,5-4.4,6.9-7.7c5.2-8.8,2.4-18.3-0.1-26.8c-2-6.7-3.8-13.1-1.7-18.1c0.8-1.9,2.3-3.8,3.9-5.9c3-3.8,6.3-8.1,6.5-14.1
		c0.2-5.1-2.1-9.1-4.1-12.7c-1.1-1.9-2.1-3.7-2.5-5.4c-1.5-5.2-0.3-10.5,1.1-16.4c1-4,1.9-8.2,2.1-12.7c0.4-10.2-5.6-17.9-10.9-24.8
		c-4.8-6.2-9.2-12-9.2-19.1c0-8,4.2-16,10.8-20.5c5.9-4,13.7-5.4,20.5-6.4c11.1-1.7,22-2.5,32.3-2.5c29.5,0,54.6,6.6,74.8,19.5
		c4.4,2.8,10.6,7.3,14,13.3c3.1,5.3,3.5,11.6,1.1,15.9c-0.9,1.7-2.3,3.2-3.9,4.9c-2,2.2-4.2,4.7-5.8,7.9c-2.7,5.6-2.5,11.5-2.4,16.8
		c0.1,2.5,0.2,4.8-0.1,6.9c-1,10.7-10.4,20.4-21,21.6c-1,0.1-1.9,0.2-2.9,0.2c-9.3,0-18.4-5-27.9-10.2c-2.2-1.2-4.5-2.5-6.9-3.7
		c-8.9-4.6-18.2-7.1-26.1-7.1c-8.4,0-15.6,2.8-20.8,8.1c-3.6,3.7-5.7,8.1-5.9,12.6c-0.3,6.2,3,11.1,5.9,15.4
		c2.1,3.2,4.1,6.1,4.1,8.9c0.1,2.9-1.9,5.9-4.2,9.3c-2.8,4.2-6,9-6,15.1c-0.1,8.8,6,14.5,11.3,19.6c2.2,2.1,4.2,4,5.8,6
		c2.6,3.5,4.4,8.1,5.2,13.9c0.7,4.9,0.7,11.6-2.7,16.6C324.1,219.5,320.6,221.3,317.5,221.3z"/>
	<path class="st2" d="M316.7,219.1c-1.2-0.4-2.1-1.7-3.1-2.9c-2.2-2.6-4.3-5.1-7-7c-3.8-2.8-7.1-3.4-11.7-4.1
		c-1.1-0.2-2.3-0.4-3.1-1.2c-0.9-1.1-0.7-2.7,0-3.9c1.5-2.3,3.2-3,4.3-5.8c1.3-3.3,2-6.7,1.8-10.3c-0.2-7.3-2.9-14.2-4.9-21.1
		c-1.6-5.7-1.1-11.6,0.2-14.6c0.5-1.2,1.9-3,3.3-4.8c2.2-2.8,3-6.9,5-10c1.6-2.5,4.6-4.4,6.6-1.2c2.1,3.3-0.7,6.5-2.5,9.1
		c-3.3,5.1-4.7,11.3-4.8,19.9c-0.1,7.8,2.4,16.8,8,22.5c4.9,4.9,9.8,10,12.1,16.7c1.5,4.4,3.3,15-1.6,18.1
		C318.2,219.2,317.4,219.4,316.7,219.1z"/>
	<path class="st2" d="M297.7,104.7c-3.5,0.3-0.3-11.1,0.2-13.1c1-4.1,2-8.6,2.2-13.6c0.4-9.6-4.2-19.1-10.3-26.3
		c-5.8-6.9-11.4-13.6-7.8-23.4c3.9-10.8,14-12.1,23.7-13.6c10.6-1.5,21-2.3,30.8-2.3c25.3,0,50,5.4,71.6,19.3
		c4.2,2.7,8.4,5.9,10.4,10.5c4,9.2-5.5,14.2-9,21.4c-3.3,6.8-3.1,13.8-3,19.4c0.1,2.2,0.1,4.3-0.1,6c-0.7,7.5-7.6,14.6-15,15.5
		c-0.7,0.1-1.4,0.1-2.1,0.1c-7.5,0-15.7-4.5-24.4-9.2c-2.2-1.2-4.5-2.5-6.9-3.7c-9.6-5-19.6-7.7-28.5-7.7c-6.5,0-13.5,1.6-19.1,5.3
		c-2.9,1.9-5.5,4.4-7.4,7.4c-1.4,2.1-2.5,7.5-5.2,8.1C297.9,104.7,297.8,104.7,297.7,104.7z"/>
	<path class="st2" d="M316.9,211c-2.7-0.4-5-4.5-7.2-6.1c-2.6-1.9-9.7-2-10-6.1c-0.1-1.2,1.9-5.9,2.3-7.5c0.7-2.5,1.4-4.8,4.5-3.2
		c4.4,2.2,7.8,9.7,9.3,14.2C316.8,204.9,317.9,208.2,316.9,211z"/>
	<path class="st2" d="M389.1,96.2c-2.2,0.2-4.3-0.1-6.4-0.7c-5.5-1.7-10.1-5.2-15-8.2c-9.4-5.7-20.1-9.3-31-10.5
		c-4.9-0.5-11.4-1.4-16.2,0.3c-4,1.5-7.7,5.8-12.2,5.6c-4-0.2-2.9-3.8-2.7-7.4c0.5-14.1-7.2-24.2-12.9-31.6
		c-3.4-4.4-6.6-8.6-6.6-11.5c-0.1-11.7,12.7-13.1,21.4-14.7c10.4-2,21.1-2.8,31.7-2.5c21.4,0.6,42.8,5.9,62,15.6
		c3.9,2,7.8,4.2,10.3,7.9c3.1,4.5,1.6,6.8-1.3,10.8c-5.6,7.5-9.1,16.3-9.2,25.7c-0.1,5.7,0.8,12-2.6,16.6
		C396.2,94.5,392.7,95.9,389.1,96.2z"/>
	<path class="st2" d="M350.8,241.3c-7.8,0-12.5-5.3-13-10.3c-0.3-2.5,0.4-4.8,0.8-6.2c1.4-4.2,3.6-8.2,5.9-12.1
		c3.7-6.6,7.3-12.8,5.8-19.1c-1.2-5-5.2-8.8-9.5-12.7c-1-0.9-2-1.8-3-2.8c-7.5-7.4-10.1-15.8-7-22.3c1-2,2.4-3.6,3.7-5.2
		c1.6-1.9,3.1-3.6,3.3-5.5c0.2-1.5-0.5-3.3-1.2-5.1c-0.3-0.7-0.6-1.5-0.8-2.4c-2.2-6.8-0.4-14.4,4.2-18.7c2.1-1.9,4.5-2.9,7.4-2.9
		c5.6,0,11.6,3.8,17.3,7.4c3.9,2.5,7.6,4.8,10.6,5.6c1.7,0.4,3.5,0.9,5.2,1.2c6.4,1.5,13,3,19,6.3c5.6,3.1,11.7,9.7,15.7,17.2
		c7.6,14,6.7,27-2.5,33.9c-5.5,4.2-12.6,4.2-18.8,4.2c-0.7,0-1.3,0-2,0c-8,0.1-13.2,2.1-15.5,5.9c-1.1,1.8-1.5,4.2-1.9,6.6l-0.1,0.4
		c-1.4,8-3.1,14.4-5.3,20c-3.3,8.2-7.5,13.4-13.1,15.6C354.3,240.9,352.5,241.3,350.8,241.3z"/>
	<path class="st2" d="M412.3,156c-3.9-7.2-9.6-13.3-14.7-16.1c-7.2-4-15.6-5.3-23.6-7.3c-9.7-2.5-24.3-18.7-32.8-10.7
		c-4.2,4-5.3,10.5-3.5,16c0.9,2.8,2.5,5.6,2.2,8.6c-0.5,4.6-5.3,7.4-7.3,11.5c-3.1,6.5,1.4,14.2,6.5,19.2
		c5.1,5.1,11.5,9.7,13.1,16.8c2.7,11.5-8,21.4-11.7,32.7c-0.5,1.7-0.9,3.4-0.7,5.1c0.6,6.3,8.8,9.5,14.6,7
		c5.8-2.4,9.3-8.3,11.7-14.2c2.5-6.2,4-12.9,5.2-19.5c0.5-2.7,0.9-5.5,2.3-7.9c3.4-5.8,11-7.2,17.7-7.3c6.7-0.1,13.9,0.3,19.3-3.7
		C419.9,179.3,418.1,166.5,412.3,156z"/>
	<path class="st2" d="M350.8,233.2c-2.3,0-5-1.3-5.2-3.1c-0.1-0.7,0.1-1.7,0.5-2.9c1.1-3.5,3.1-6.9,5.2-10.6
		c4.2-7.3,8.9-15.5,6.6-25c-1.7-7.3-7.1-12.3-11.8-16.7c-1-0.9-1.9-1.8-2.8-2.6c-3.6-3.6-7.3-9.2-5.4-13.1c0.5-1,1.5-2.2,2.5-3.4
		c2.1-2.5,4.7-5.4,5.2-9.8c0.4-3.5-0.7-6.5-1.6-8.9c-0.3-0.7-0.5-1.3-0.7-1.9c-1.2-3.8-0.4-8.2,2.1-10.5c0.6-0.5,1.2-0.7,2-0.7
		c3.3,0,8.5,3.3,13.1,6.2c4.4,2.8,8.7,5.4,12.8,6.5c1.8,0.4,3.6,0.9,5.3,1.3c6.2,1.4,12,2.8,17.1,5.6c4.3,2.3,9.2,7.9,12.6,14
		c2.7,4.9,4.2,9.9,4.2,14c0,4.2-1.4,7.3-4.4,9.6c-3.4,2.6-8.6,2.6-14.1,2.6c-0.7,0-1.4,0-2.1,0c-11,0.1-18.4,3.5-22.2,9.9
		c-1.8,3.1-2.4,6.4-2.9,9.2l-0.1,0.4c-1.3,7.5-2.9,13.4-4.9,18.5c-2.4,6-5.3,9.8-8.8,11.2C352.3,233.1,351.5,233.2,350.8,233.2z"/>
	<path class="st2" d="M365,182c-5.1-1.2-6.1-7.7-9.5-11.3c-2.9-3-8.3-5.4-9-9.9c-0.8-5.3,5.7-10.5,5.6-16.8c0-3.2,0.7-6.9,3.6-8
		c4.2-1.6,11.3,5.1,15.6,6.1c1.8,0.5,3.7,0.9,5.4,1.3c5.9,1.4,10.9,2.6,15,4.8c5.3,2.9,15.5,15.4,11.7,21.8
		c-1.5,2.5-4.4,3.8-7.3,4.1c-6.5,0.5-10.6-0.6-17.2,1.8c-4.3,1.5-8.4,6.8-13.3,6.2C365.4,182.1,365.2,182.1,365,182z"/>
	<path class="st2" d="M366.6,173.7c-2.6-0.2-3.2-3-4.2-5c-1.4-2.7-3.5-5.2-6.1-6.8c-1.8-1.1-3.7-2.6-3.9-4.7c-0.1-1,0.3-1.9,0.6-2.8
		c1.4-3.9,2.9-7.8,4.3-11.7c1.6-4.4,4.8-2.7,7.7-0.8c4.4,2.9,9.3,4,14.4,5.1c7.6,1.8,14.6,5.1,18.6,12.2c1,1.8,1.2,4.2-0.1,5.7
		c-1.8,2.3-5.4,1.8-8.3,1.4c-5.8-0.6-11.8,1-16.6,4.4c-1.7,1.2-3.4,2.7-5.4,2.9C367.1,173.7,366.8,173.7,366.6,173.7z"/>
	<path class="st2" d="M369,162.3c-2.5-0.6-4.4-2.7-6.2-4.6c-1.5-1.7-3.1-3.4-3.9-5.6c-2.8-8.3,5.5-6.3,10-5.1
		c4.6,1.2,9.5,2.2,13.9,4.3c1.2,0.6,4.8,2,4.3,3.7c-0.4,1.6-8.8,4.6-10.3,5.4c-2.2,1.2-4.6,2.3-7.1,2
		C369.4,162.4,369.2,162.4,369,162.3z"/>
	<path class="st2" d="M138.8,168.2c-0.1-0.2-0.2-0.3-0.3-0.5c-3.8-6.1-5.6-11.6-6-19c-0.4-8.3-0.1-17.3-5-23.9
		c-4.1-5.6-11.2-8.6-14.4-14.7c-2.7-5.2-2.1-11.5-2.1-17.4c-0.1-11.9-8.5-22.3-20.4-24c-6.8-1-19.6,1.4-25.9,4.9
		c-9.9,5.3-10.8,17.3-12.6,27.2c-3.4,18.7-24.6,27.2-24.6,46.8c-0.1,10,4.3,19.9,11.8,26.5c3.2,2.8,6.9,5,11,5.9
		c11.4,2.3,23.3-6.2,34.2-2.1c5.7,2.1,9.8,7.4,11.9,13.2c2.2,6,1.4,12.7,5.2,17.6c2.5,3.2,8,6,11.2,8.5c3.4,2.6,16.9,15.2,21.9,11.6
		c4.6-3.3,3.1-15.2,3.9-20.4C140.6,194.1,146.7,180.5,138.8,168.2z"/>
	<path class="st2" d="M128.2,216.3c-6.7,1-17.4-9.5-19.8-14.8c-2.5-5.3-3.6-11.2-6.3-16.3c-4-7.9-11.4-13.9-19.8-16.1
		c-13.4-3.6-26.2,9.1-37.7-1.1c-5.7-5.1-9.1-12.7-9-20.3v-0.1c0-7.6,4.8-13.4,10.4-20.1c6.8-8.1,12.3-16.4,14.2-27
		c0.8-4.8,1.5-9.7,3.6-13.9c4.2-8.4,15-10,23.5-10c1.1,0,1.8,0.1,2.3,0.1c19,2.7,10.1,24.1,15.7,36.1c3.5,7.3,12,11,16.1,17.9
		c7.4,12.6,2.2,28.1,10.4,41.3c0.1,0.2,0.3,0.4,0.4,0.6c4.5,7.2,4.4,17.7,3.5,25.8c-0.5,4.4-1.1,9.5-3.1,13.6
		C131.3,214.8,129.8,216,128.2,216.3z"/>
	<path class="st2" d="M124.6,205.4c-2.9,1-6.4-1.4-9.2-7.3c-1-2.1-1.7-4.4-2.6-6.9c-1.1-3.2-2.2-6.4-3.8-9.7
		c-5-9.8-14.3-17.4-24.9-20.2c-2.3-0.6-4.7-0.9-7.2-0.9c-4.8,0-9.3,1.1-13.3,2.1c-3.2,0.8-6.1,1.5-8.6,1.5c-2.2,0-3.8-0.6-5.4-2
		c-4-3.5-6.4-8.9-6.3-14.3v-0.1c0-4.5,3.1-8.4,8.6-14.9c5.2-6.2,10-13,13-20.7c3.1-7.8,1.5-17.8,8.1-23.8c3.8-3.5,13.1-6.3,17.9-3.1
		c4.2,2.8,3.8,8.7,4,13.4c0.3,5.7,0.5,12.1,3.2,17.6c2.5,5.4,6.7,9,10.3,12.2c2.5,2.2,4.9,4.2,6.1,6.4c2.7,4.6,3.2,10.1,3.8,16.5
		c0.7,7.7,1.5,16.6,6.7,24.9c0.1,0.2,0.3,0.4,0.4,0.6c3.5,5.6,4.6,14.2,3.6,20.6C128.4,202,126.8,204.6,124.6,205.4z"/>
	<path class="st2" d="M123.4,202.9c-1.3,0-3.5-1.9-5.5-6c-0.9-1.9-1.7-4.2-2.5-6.6c-1.1-3.3-2.2-6.6-4-10
		c-5.3-10.5-15.3-18.6-26.6-21.6c-2.5-0.6-5.2-1-7.9-1c-5.1,0-9.8,1.2-13.9,2.2c-3,0.7-5.9,1.4-8,1.4c-1.6,0-2.5-0.4-3.7-1.4
		c-3.4-3-5.5-7.6-5.4-12.2v-0.2c0-3.6,2.9-7.2,7.9-13.2c6.6-7.9,10.8-14.5,13.5-21.4c1.2-3.1,1.8-6.4,2.3-9.6
		c0.8-5.1,1.6-10,5.1-13.1c2.1-1.9,6.7-3.8,10.7-3.8c1.6,0,3.1,0.3,4,1c2.4,1.6,2.6,4.8,2.7,9.4c0,0.6,0.1,1.3,0.1,1.9
		c0.3,5.9,0.5,12.6,3.4,18.6c2.8,5.9,7.1,9.7,11,13.1c2.3,2,4.5,4,5.6,5.8c2.4,4.1,2.9,9.3,3.4,15.4c0.7,8.1,1.6,17.2,7.1,26.1
		c0.1,0.2,0.3,0.4,0.4,0.7c2.9,4.5,4.2,12.2,3.2,18.7c-0.6,3.8-1.8,5.5-2.7,5.8C123.6,202.9,123.5,202.9,123.4,202.9z"/>
	<path class="st2" d="M86.3,153.5c-3-0.8-6.1-1.2-9.2-1.2c-3.2,0-6.5,0.3-9.7,1c-2.7,0.6-5.3,2.1-8.1,2.4c-2.6,0.3-5.4-0.5-7-2.7
		c-1.3-1.8-1.3-4.3-0.6-6.5c1.2-3.4,4-6.1,6.2-8.8c7-8.4,11.4-15.4,14.4-22.9c1.4-3.6,2.1-7.4,2.6-10.7c0.7-4.3,1.3-8.1,3.4-10
		c1.8-1.7,5.6-3.7,7.8-1.4c2.2,2.3,1.2,6.6,1.2,9.5c0,4,0.6,7.9,1.7,11.6c1.6,5.3,4.3,10.3,7.8,14.4c3.1,3.7,8.5,6.4,11,10.6
		c1.8,3,2.2,7.7,2.7,13.1C111.3,160.2,99,156.9,86.3,153.5z"/>
	<path class="st2" d="M104,151.2c-0.1,0.1-0.2,0.2-0.4,0.2c-1,0.4-2.2,0.2-3.2-0.1c-4.2-1-8.5-1.8-12.7-2.9l-0.2-0.1
		c-8.2-2.1-16.9-1.9-24.8,1.2c-1,0.4-2,0.8-3,0.9c-1.1,0.1-2.2-0.5-2.6-1.4c-0.5-1.3,0.4-2.7,1.3-3.8c4-4.9,8.2-9.6,11.9-14.6
		c2.6-3.6,5.8-9.2,6.8-13.6c1.4-3.5,0.8-7,1.2-10.6c0.2-2.1,0.8-4.2,1.9-6c0.3-0.4,1.3-2.3,1.8-2.3c1.7,0,1.4,5.8,1.4,6.9
		c-0.2,3.5-0.6,7,0.5,10.5c1.8,6,4.9,11.6,8.9,16.3c1.6,2,3.6,3.5,5.5,5.1c3.4,2.8,6.5,6.2,7,10.8C105.5,149,105.1,150.4,104,151.2z
		"/>
	<path class="st2" d="M123.4,187.4c-0.7-1.6-1.8-2.9-2.6-4.5c-1.6-3-2.1-6.6-3.2-9.9c-0.7-2.1-2.1-2.8-3.6-4.2
		c-0.3-0.2-0.5-0.5-0.8-0.6c-0.3-0.1-0.7,0-0.9,0.3c-0.2,0.3,0,0.6,0.1,0.9c0.5,1.2,1,2.5,1.4,3.7c2.1,7,2.2,14.7,6,20.9
		c0.6,1,1.8,2.1,2.8,1.5c0.4-0.2,0.6-0.6,0.8-1.1C124.4,192.3,124.4,189.7,123.4,187.4z"/>
	<path class="st2" d="M247.9,95.3c-0.6-4-3.4-7.2-6.3-9.8c-3.5-3.3-7.5-6.2-12.1-7.4c-2.6-0.6-7.3-0.6-7.2,3.2
		c0,0.9,0.3,1.8,0.6,2.6c1.6,4,5.2,8.5,2.7,12.8c-1.1,1.8-2.6,3.2-3.9,4.9c-2.5,3.3-3.6,7.5-3.1,11.6c0.7,5.5,6,15.9,12.1,9.8
		c4-4,1.8-11.3,7.2-14.7c1.2-0.7,2.5-1.1,3.8-1.7C245.9,104.6,248.6,99.8,247.9,95.3z"/>
	<path class="st2" d="M227.5,122.6c-1.9,0-5.1-4.6-5.7-9.3c-0.4-3.3,0.5-6.9,2.5-9.6c0.4-0.5,0.9-1.1,1.4-1.7c1-1.1,1.9-2.1,2.7-3.5
		c3.2-5.6-0.8-10-2.7-15c-0.3-0.7-0.3-1.7,0.3-2.4c0.8-1,2.4-0.3,3.4-0.1c4.5,1.1,8.4,4.4,10.9,6.7c2.3,2.1,5,5,5.5,8.3
		c0.5,3.3-1.5,6.9-4.6,8.4c-0.4,0.2-0.8,0.4-1.3,0.5c-0.9,0.3-1.8,0.7-2.9,1.3c-3.9,2.5-4.8,6.5-5.5,9.6c-0.5,2.2-1,4.2-2.2,5.4
		C228.9,122,228.2,122.6,227.5,122.6z"/>
	<path class="st2" d="M226.6,116.1c-0.4,0.1-0.7-0.2-1-0.5c-0.6-1.2-0.4-3.6-0.3-4.9c0.1-1.8,0.6-3.4,1.6-4.9
		c0.3-0.4,0.7-0.9,1.2-1.4c1.1-1.2,2.2-2.5,3.2-4.2c3.2-5.4-2.9-11.9-0.2-13.9c0.8-0.6,1.8-0.6,2.6,0.1c0.5,0.4,0.8,1,1.1,1.4
		c1,1.5,2.2,3,3.5,4.3c1.1,1.1,2.4,2.5,2.6,4.2c0.2,1.4-0.8,3.3-2.2,3.9c-0.3,0.1-0.6,0.3-1,0.4c-1,0.4-2.3,0.9-3.6,1.7
		c-2.1,1.3-3.8,3.2-5,5.4c-1.1,2-2.3,4.3-2.1,6.7c0.1,0.5,0.1,1.3-0.4,1.5C226.8,116,226.7,116.1,226.6,116.1z"/>
	<path class="st2" d="M491.4,122.5c-2.5-8.5-5.5-17-9.7-24.8c-3-5.6-6.7-10.9-11.9-14.3c-4.8-3.1-10.5-4.3-16-5.6
		c-16.9-3.6-11.2,22.5-15.2,31.2c-3.2,7.2-9.4,12.8-16.7,15.3c-2.7,0.9-5.6,1.4-7.8,3.3c-2.2,1.8-3.2,5.6-1.1,7.5
		c0.8,0.8,2,1.1,3,1.6c5.6,2.8,7.3,9.9,7.6,16.2s0,13.1,3.6,18.2c2.3,3.2,5.9,5.3,7.8,8.8c3.3,6,0.5,13.6,2.2,20.2
		c1.5,5.8,7.4,10.6,13.3,9.4c7.7-1.6,10.6-11.1,10.6-19c0.1-7.9-0.9-16.7,3.9-22.8c5.6-7.2,16.7-7.4,23.3-13.7c4-3.8,5.8-9.6,6-15.2
		C494.4,133.4,493,127.9,491.4,122.5z"/>
	<path class="st2" d="M448.6,207.2c-3.9,0-7.8-3.4-8.9-7.6c-0.6-2.5-0.5-5.2-0.4-8.1c0.2-4.3,0.3-8.8-2-12.9c-1.3-2.2-3-4-4.8-5.6
		c-1.2-1.2-2.4-2.2-3.2-3.5c-2.6-3.7-2.9-8.8-3.1-14.2c-0.1-0.9-0.1-1.8-0.1-2.6c-0.5-9.3-3.6-15.8-9.1-18.5
		c-0.3-0.2-0.6-0.3-0.9-0.4c-0.6-0.3-1.1-0.5-1.4-0.7c-0.1-0.1-0.3-0.3-0.3-1c0.1-0.9,0.6-2,1.3-2.6c1.3-1.1,3.1-1.6,5.1-2.2
		c0.6-0.2,1.3-0.4,1.9-0.6c8-2.7,14.8-9,18.3-16.8c1.4-3.1,1.7-7.6,2-12.4c0.7-10.6,1.7-17.6,7.7-17.6c0.7,0,1.6,0.1,2.4,0.3
		c5.3,1.1,10.7,2.3,15.2,5.2c4.1,2.6,7.6,6.8,11,13.3c3.6,6.7,6.6,14.4,9.5,24.3c1.4,4.7,2.8,10.2,2.7,15.6
		c-0.2,5.4-2,10.3-5.2,13.3c-2.7,2.6-6.3,4.1-10.2,5.6c-4.9,1.9-9.9,4-13.3,8.4c-4.7,5.9-4.6,13.8-4.5,20.8c0,1.3,0.1,2.5,0,3.7
		c-0.1,7.3-2.7,15.2-8.5,16.4C449.5,207.1,449,207.2,448.6,207.2z"/>
	<path class="st2" d="M445.3,198.3c-0.6-0.4-1.1-1.1-1.3-1.9c-0.4-1.4,0-3.1,0.1-4.5c0.2-4.9,0.4-11-3-17c-3.1-5.7-8.5-7.6-9.5-14.7
		c-0.6-4.3-0.4-8.9-2-12.9c-1.5-3.6-4.5-6.7-4.8-10.7c-0.4-5.1,4-9.1,8.2-11.8c4.6-2.9,8.8-5.4,11.5-10.4c3.1-5.7,3.7-12.3,3.1-18.6
		c-0.2-1.9-0.5-3.8,0.2-5.5c2.2-5.1,8.8-1.6,11.9,0.4c3.6,2.4,6.4,7.5,8.7,11.2c5.4,8.6,9.3,18.2,11.3,28.1c1,4.5,1.5,9.5-0.7,13.6
		c-2.7,5.1-8.7,7.3-14,9.4c-6.7,2.6-10.6,6.1-14.1,12.4c-3.6,6.5-3.6,14.5-3.5,21.7C447.3,190.4,447,195.4,445.3,198.3z"/>
	<path class="st2" d="M443.9,171.6c-1.6,0.4-3.1-2.4-4.2-3.7c-1.2-1.5-2.3-3.3-2.5-5.3c-0.2-1.2-0.3-2.5-0.4-3.8
		c-0.3-3.2-0.5-6.8-2-10.3c-0.7-1.7-1.6-3.2-2.4-4.5c-1-1.7-2-3.3-2-4.5c-0.2-2,2-4.5,5.8-6.9l0.6-0.4c4.6-2.9,9.5-6,12.7-12
		c3.3-6.1,3-13.6,3.3-20.4c0.1-0.9,0.2-1.9,0.9-2.5c0.6-0.4,1.4-0.4,2-0.1c0.6,0.3,1.2,0.8,1.7,1.3c9,9.4,14.9,23.1,17.5,35.8
		c0.7,3.2,1.3,7.3-0.2,10c-1.7,3.3-6.3,5-10.8,6.8l-0.4,0.2c-4.3,1.7-8.2,4-11.4,7.3c-2,2-3.4,4.4-4.8,6.8c-0.9,1.7-1.1,4.1-2.4,5.5
		C444.6,171.2,444.3,171.4,443.9,171.6z"/>
	<path class="st2" d="M444.3,165.8c-0.5,0.2-1.1-0.4-1.3-2.3c-0.2-1.1-0.3-2.3-0.4-3.6c-0.4-5.3-1.2-10.8-4.2-15.3
		c-0.7-1.1-1.5-2.3-1.5-3.6c-0.1-2.2,2.3-2.9,3.8-3.8c4.9-3.1,10.4-6.6,14.1-13.6c2.1-4,3.1-8.5,3-13c-0.1-1-0.1-2.2,0.8-2.7
		c0.7-0.4,1.7-0.1,2.3,0.5c2,2.3,3.4,6,4.8,8.8c2.4,4.6,4.4,9.5,5.9,14.5c1,3.2,1.8,6.6,1,9.9c-1.4,5.1-5.3,6.1-9.7,7.4
		c-4.4,1.3-9,4.8-12.1,8.1c-1.3,1.4-2.4,2.9-3.4,4.5C446.6,162.8,445.3,165.5,444.3,165.8z"/>
	<path class="st2" d="M445.6,152.5c-0.2,0-0.4-0.1-0.5-0.2c-1.4-0.9-1.3-4.1-1.8-5.5c-0.7-2-2.1-3.7-2.7-5.8c-0.6-2,1.5-2.3,2.9-3.3
		c1.1-0.7,2.2-1.5,3.2-2.3c5.5-4.2,10.6-9.5,12.1-16.4c0.1-0.5,0.2-1,0.6-1.3c0.9-0.7,1.5,0.8,1.8,1.4c0.8,1.4,1.3,3.1,1.9,4.6
		c1.1,2.5,2,5.1,2.8,7.7c1,3,2.2,6.3-0.1,9c-1.7,2.1-4.6,2.7-7.2,3.6c-3.2,1.2-6.2,3-8.6,5.4C449.2,150.3,447.2,152.7,445.6,152.5z"
		/>
	<path class="st2" d="M444.8,143.9c-0.1,0.1-0.2,0.1-0.2,0.2c-0.2,0.2-0.5,0.3-0.7,0.2c-0.3-0.1-0.3-0.4-0.3-0.7
		c0-0.8,0.1-1.7,0.4-2.3c0.6-1.2,1.8-0.9,2.7-1.5c2.2-1.7,3.7-4,5.3-6.2c1-1.3,3.2-4.9,5.3-3.8c0.4,0.2,0.7,0.7,0.8,1.2
		c0.1,1.1-0.6,2-0.1,3.2c0.2,0.6,0.6,1.1,0.7,1.8c0.1,0.6-0.2,1.2-0.6,1.5c-0.6,0.5-1.9,0.7-2.7,1c-0.5,0.2-1.1,0.4-1.6,0.5
		C450.5,139.9,447.7,142,444.8,143.9z"/>
	<path class="st2" d="M466.8,223.9c-2.9-5.6-8.7-10.4-14.6-10.2c-4.3,0.2-8.5,2.4-12.8,1.8c-6.1-0.8-10.1-6.8-15-10.5
		c-8.1-6-19.1-5.9-29.1-4.8c-2,0.2-4.2,0.7-5.1,2.5c-0.7,1.4-0.2,3.2,0.5,4.6c2.5,5.2,7,9.4,12.2,11.6c4.7,1.9,9.9,2.3,14.5,4.4
		c9.3,4.3,14.4,15.4,13.4,25.7c-1,10.3-7.2,19.5-15.2,26c-4.7,3.8-10.6,7.8-10.8,13.9c-0.1,3.3,1.6,6.3,4,8.5
		c2.4,2.2,5.3,3.6,8.3,4.8c2.5,1,5.4,2.1,6.7,4.5c1.2,2.3,0.7,5.2,1.6,7.6c1.2,2.8,4.1,4.4,6.9,5.7c2.7,1.2,5.9,2.3,8.8,1.4
		c1.9-0.6,3.4-2,4.8-3.5c5.9-6.1,10.9-13.5,12.3-22c0.8-4.9,0.4-9.9,0.4-14.9c-0.1-11.4,1.7-22.8,5.4-33.5c2-5.8,5.4-11.9,4.5-18.2
		C468.4,227.6,467.7,225.8,466.8,223.9z"/>
	<path class="st2" d="M438.8,316.1c-1.1,0.3-2.2,0.2-3.3-0.1c-2.4-0.7-4.4-2.7-5.2-5.1c-0.5-1.4-0.6-2.9-0.9-4.4
		c-1-5-5.8-7.5-10.1-9.1l-0.2-0.1c-2.3-0.9-4.8-2-6.7-3.7c-1.4-1.3-2.3-3-2.3-4.4c0.1-2.9,3.7-5.8,7.2-8.7c0.5-0.4,1.1-0.8,1.5-1.2
		c9.8-8,16-18.8,17.1-29.6c1.3-13.2-5.5-26-16.5-31c-2.9-1.3-5.8-2-8.6-2.7c-2.2-0.5-4.3-1-6.1-1.8c-1.9-0.8-3.5-2.1-5-3.5
		c-1.8-1.7-6.1-5-2.1-6.4c1.3-0.4,3.1,0.1,4.4,0.4c6.5,1.9,13,0.4,19,4.8c1.3,1,2.6,2.2,4,3.5c3.6,3.4,7.6,7.2,13.6,8
		c0.7,0.1,1.4,0.1,2.1,0.1c2.6,0,5-0.6,7.1-1.1c1.6-0.4,3.1-0.7,4.4-0.8c0.1,0,0.1,0,0.2,0c3.3,0,7.3,3.2,9.6,7.4
		c0.7,1.3,1.1,2.5,1.3,3.7c0.5,3.8-1.1,7.9-2.6,11.3c-1.9,4.2-3.3,8.5-4.3,13c-2,8.9-2.6,18.1-2.9,27.1c-0.2,6.8-0.4,13.7-2.5,20.1
		C449.5,306.2,444.6,314.8,438.8,316.1z"/>
	<path class="st2" d="M437.4,313.4c-0.6,0-1.1-0.1-1.7-0.3c-1.5-0.6-2.6-2.1-3.2-3.7c-0.8-2.5-0.5-4.9-2-7.2c-1.3-2-3-3.6-5-4.9
		c-3.2-2-7.2-2.6-10.2-4.7c-1.3-1-2.3-2.6-2.1-4.2c0.3-1.5,1.5-2.7,2.8-3.6c11.6-7.9,21.2-20.6,22.6-35c1.4-14.4-6-28.3-18-33.8
		c-3.1-1.4-6.1-2.1-9.1-2.8c-2.1-0.5-4.1-1-5.7-1.7c-1-0.4-4.5-1.9-4.4-3.3c0.1-2.6,6.4,0,7.7,0.2c4,0.4,7.3,0.7,10.6,3.1
		c1.2,0.9,2.4,2,3.7,3.3c3.7,3.5,8.2,7.8,15,8.7c0.8,0.1,1.6,0.2,2.4,0.2c2.9,0,5.6-0.6,7.7-1.2c1.5-0.4,2.9-0.7,3.9-0.7h0.1
		c2,0,5.3,2.4,7.2,5.9c0.5,1,0.8,2,0.9,2.8c0.4,3.1-1.1,6.7-2.4,9.8c-1.9,4.2-3.4,8.8-4.5,13.5c-2.1,9.1-2.6,18.7-3,27.6l-0.1,1
		c-0.2,6.2-0.4,12.6-2.3,18.4c-1.3,3.7-3.9,8.5-7,11C440.3,312.8,438.9,313.4,437.4,313.4z"/>
	<path class="st2" d="M438,307c-1.3-0.3-1.2-3.4-1.8-4.9c-0.8-1.9-2-3.7-3.3-5.3c-2.7-3.2-6.5-5.4-10.7-6c-0.8-0.1-1.8-0.3-2.2-1
		c-0.5-0.9,0-1.9,0.5-2.7c3.2-5,7.2-9.3,11-13.8c3.9-4.4,7.6-9.1,10-14.5s3.3-11.7,1.4-17.3c-0.7-2.2-1.9-4.3-2.6-6.5
		c-2.2-6.8,3.5-6.2,8.4-7.2c1.8-0.3,3.9-0.6,5.3,0.5c1.2,0.9,1.6,2.6,1.4,4c-0.2,1.5-0.7,2.9-1.3,4.2c-5.2,12.3-8,25.6-8.4,39
		c-0.2,5.8,0.2,11.5-0.7,17.3c-0.5,2.9-1.1,5.9-2.3,8.6c-0.7,1.7-1.8,4-3.3,5C438.8,306.9,438.3,307.1,438,307z"/>
	<path class="st2" d="M438.4,297.7c-0.1,0-0.2,0-0.3-0.1c-0.6-0.3-0.8-1.6-1.2-2.1c-0.6-1.2-1.4-2.3-2.2-3.3c-1.3-1.5-3-2.6-4.8-3.4
		c-1.2-0.6-4.5-1.2-4.7-2.8c-0.2-1.5,2.1-2.9,2.9-4c1.3-1.5,2.5-3.1,3.9-4.6c0.5-0.6,1.1-1.2,1.6-1.8c2.3-2.7,4.4-5.5,6.3-8.5
		c0.9-1.4,2.1-3.1,2.6-4.7c0.2-0.7-0.1-3.4,1.2-3.4c0.8,0-1.7,12.3-1.8,13.3c-0.5,3.6-0.2,7.4-0.4,11.1c-0.2,3.7-0.5,7.4-1,11.1
		c-0.1,0.7-0.2,1.5-0.6,2.2C439.7,297.1,439,297.8,438.4,297.7z"/>
	<path class="st2" d="M437.3,290.5c-0.5,0.3-1-0.5-1.1-1c-0.7-2.5-2.9-3-4.9-4.1c-0.3-0.2-0.6-0.4-0.7-0.7c-0.3-0.7,0.4-1.4,0.8-2
		c0.6-0.7,1.2-1.5,1.8-2.3c0.6-0.7,1.2-1.5,1.8-2.3c0.3-0.4,0.7-0.8,1.1-1.3c0.3-0.4,0.5-0.9,0.8-1.3c0.2-0.2,0.4-0.4,0.6-0.4
		c0.4,0,0.8,0.4,0.8,0.9c0.1,0.5-0.2,0.9-0.2,1.3c-0.1,0.5-0.1,1.1-0.1,1.6c-0.1,1.1-0.1,2.2-0.1,3.4c-0.1,2.2-0.2,4.4-0.2,6.7
		c0,0.4-0.1,0.9-0.3,1.2C437.5,290.4,437.4,290.5,437.3,290.5z"/>
	<path class="st2" d="M319.8,373.1c-1.2-3.8-5.7-6.5-5-10.5c0.3-1.5,1.3-2.8,2-4.3c1.3-2.7,1.2-6.1-0.3-8.8
		c-1.5-2.6-4.4-4.4-7.4-4.5c-5.3-0.2-9.7,4.1-14.8,5.1c-11.2,2.3-21.5-10.6-32.6-7.9c-7.4,1.8-11.4,9.8-16.8,15.2
		c-6.5,6.6-21.9,6.3-25.2,16.1c-0.8,2.5-0.6,5.7,1.6,7.1c1.3,0.8,2.9,0.8,4.4,0.7c13.4-1,26.6-8.3,39.6-5.1
		c4.6,1.1,8.8,3.5,13.2,5.3c8.9,3.6,18.7,4.9,28.2,3.7c3.4-0.4,7-1.2,9.7-3.3C319,380.2,320.8,376.4,319.8,373.1z"/>
	<path class="st2" d="M299.7,383.3c-7,0-14-1.4-20.3-4c-1.4-0.5-2.7-1.2-4.1-1.8c-3-1.4-6.1-2.8-9.4-3.6c-2.4-0.6-4.9-0.9-7.6-0.9
		c-6.1,0-12.2,1.5-18.2,3c-4.9,1.2-9.9,2.5-14.7,2.8c-0.4,0.1-0.7,0.1-1.1,0.1c-0.8,0-1.4-0.1-1.7-0.3c-1-0.6-1-2.6-0.5-4
		c1.6-4.5,6.9-6.5,12.5-8.6c4.4-1.6,9-3.3,12-6.5c1.7-1.7,3.2-3.6,4.6-5.4c3.3-4.2,6.5-8.1,10.9-9.1c0.8-0.2,1.7-0.3,2.5-0.3
		c3.9,0,7.9,1.9,12.1,4c4.6,2.2,9.4,4.5,14.5,4.5c1.1,0,2.3-0.1,3.3-0.3c2.5-0.5,4.7-1.7,6.9-2.7c2.4-1.2,4.8-2.4,7-2.4
		c0.1,0,0.2,0,0.3,0c2.1,0.1,4.2,1.3,5.3,3.2c1.1,1.9,1.2,4.3,0.2,6.2c-0.2,0.4-0.4,0.7-0.6,1.1c-0.6,1.1-1.4,2.3-1.6,3.8
		c-0.6,3.5,1.4,6.1,3,8.3c0.9,1.2,1.7,2.3,2.1,3.4c0.7,2.2-0.7,4.8-2.6,6.2c-2.4,1.8-5.8,2.5-8.4,2.7
		C304.1,383.2,301.9,383.3,299.7,383.3z"/>
	<path class="st2" d="M299.7,378.1c-4.9-0.5-9.9-0.5-14.5-2.7c-5.4-2.5-10.9-4.8-16.6-6.1c-7.4-1.7-15.4-1.8-22.3,1.1
		c-1.3,0.5-2.5,1.2-3.9,1.4c-4.8,0.7-3-3.2-0.3-4.5c2.7-1.4,6.1-1.7,8.3-3.9c1.8-1.9,3.5-3.8,5-5.8c1.6-2,3.5-5.2,5.8-6.4
		c3-1.5,7.3-0.5,10.3,0.7c3.8,1.5,7.3,3.9,11.1,5.3c7.1,2.6,15.5,1.6,21.8-2.7c0.7-0.5,1.5-1.1,2.3-1.2c0.8-0.2,1.9,0.2,2.2,1
		c0.2,0.5,0.1,1.2-0.1,1.8c-0.9,3.6-3,7.7-1.5,11.3c1.2,2.9,4.8,6.2,2.9,9.6c-1.3,2.4-4,2.3-6.3,1.8
		C302.5,378.4,301.1,378.2,299.7,378.1z"/>
	<path class="st2" d="M304.6,374.1c-0.3,0.6-0.7,1-1.5,1.3c-2,0.7-5-1.1-7-1.7c-3.9-1-7.8-2.1-11.6-3.1c-7.5-2-15.1-4-22.7-6
		c-1.5-0.4-3.3-1-3.9-2.5c-0.7-1.7,0.4-3.5,1.8-4.6c4.2-3.4,10.5-1.9,15.3,0.4c4.9,2.3,9.9,5.3,15.2,4.8c2.9-0.3,5.9-1.7,8.7-0.8
		c2.4,0.7,4.1,2.9,4.8,5.3C304.4,369,305.5,372.2,304.6,374.1z"/>
	<path class="st3" d="M0.3,171.1c9,7.3,18.4,14.8,29.7,16.9c14,2.6,29.4-3.5,42.4,2.6c2,0.9,3.9,2.1,5.1,4
		c3.8,5.5,0.3,13.9,4.2,19.3c2.8,3.8,8.1,4.4,12.7,4.2c4.6-0.3,9.6-1.1,13.7,1c5.8,2.8,8,9.9,12.2,14.8c4.9,5.8,12.3,8.4,19,11.8
		c6.7,3.4,13.5,8.4,15,15.9c0.7,3.6,0.1,7.3,0.4,11c0.7,8,6.1,14.8,12.2,20.1c6.1,5.2,13,9.5,18.5,15.3c5.5,5.8,9.7,13.9,8.1,21.8
		c-1.2,6.1-5.4,11-9.5,15.5c-8.8,9.8-18.4,19.7-30.8,23.8c-8.5,2.8-17.7,2.6-26.3,5c-8.7,2.3-17.4,8.5-18.3,17.6"/>
	<path class="st3" d="M79.2,47c3.2,7.5,8.2,14.2,14.5,19.3c5.6,4.5,12.1,7.9,17.7,12.3c5.6,4.5,10.5,10.7,11,17.9
		c0.2,2.7-0.3,5.5,0.1,8.2c1.3,10.5,13.4,15.9,17.7,25.6c4.4,10-0.5,21.9,2.6,32.4c2.3,7.8,9,14.8,7.5,22.8
		c-1.1,5.9-6.2,10-8.2,15.5c-1.4,3.7-1.3,14.1,5.5,9.5c1.4-0.9,2.3-2.3,3.1-3.8c2.1-3.8,3.4-7.7,8.1-8.8c3.1-0.7,6.4-0.3,9.6,0.1
		c8.6,0.9,18.2-2.1,23.6-9.2c4.6-6.1,6.1-14.8,12.1-19.4c4.2-3.2,9.8-3.8,14.5-6.3c14.8-7.9,14.5-26.3,17.4-40.6
		c2.7-13.3,20.8-16.2,27.9-26.4c3.1-4.5,3.6-10.5,2.2-15.8c-1.5-5.3-4.7-9.9-8.6-13.8"/>
	<path class="st3" d="M477.9,44.8c-10.9-2.8-22.2,4.1-28.9,13.2c-6.6,9.1-9.7,20.3-13.7,30.9c-4,10.6-9.6,21.3-19.2,27.2
		c-2.6,1.6-5.4,2.8-7.9,4.7c-2.1,1.7-3.8,3.8-6,5.3c-5.9,4-13.8,2.5-20-1c-6.1-3.5-11.1-8.6-17.1-12.4c-7.5-4.8-16.4-7.3-25.2-7
		c-4.6,0.1-9.3,1-13,3.7c-3.7,2.7-6.2,7.5-5.3,12c1.5,6.9,10.2,12.1,8.1,18.8c-1.4,4.5-6.9,6.1-10,9.7c-5.7,6.6-1.6,17.1,4.4,23.4
		c6,6.4,13.8,11.6,16.4,19.9c3.2,10.3-2.9,20.9-8.7,30c-2.2,3.5-4.6,7-8.3,8.8c-4.9,2.3-10.8,0.5-15.4-2.3
		c-4.6-2.8-8.7-6.7-13.5-9.1c-3.6-1.8-9.1-2.1-10.7,1.6c-1.1,2.5,0.4,5.5,2.5,7c2.2,1.5,4.9,2,7.5,2.5c14.1,2.3,29.4,5.3,38.8,16.3
		c8.3,9.7,19,3.7,27.4-3.8c7.9-7,11.9-22,24.5-22c6.2,0.1,12.4,4.4,18.4,5.8c5,1.2,10,2.3,14.5,5c4.4,2.6,8.2,6.9,8.7,12.1
		c0.8,8.3-8,22.5-13.3,28.5c-5.4,6.2-13.2,10.3-12.4,19.8c0.3,3.1,2.2,4.6,3.5,7.3c1.5,3,2.2,6.4,3.6,9.5
		c6.3,13.5,20.5,21.6,16.6,38.6c-3.4,14.7-17.8,22.1-26.7,33"/>
	<path class="st3" d="M188.3,379c1.5-10.3,6.9-21.4,16.9-23.6c7.7-1.7,15.6,2.6,23.4,1.6c8.4-1.1,14.8-7.8,21.2-13.4
		c6.4-5.6,15.2-10.5,23-7.2c4.5,1.9,8,6.5,12.9,6.9c2.7,0.3,5.5-0.8,8-2c3.9-1.8,7.7-3.8,11.9-4.6c4.2-0.8,8.9-0.2,11.9,2.9
		c5.1,5.1,3.1,13.7,4.1,20.9c0.8,6.7,4.7,12.9,10.2,16.7"/>
</g>
</svg>
