<svg width="494" height="404" viewBox="0 0 494 404" fill="none" xmlns="http://www.w3.org/2000/svg">
<path fill-rule="evenodd" clip-rule="evenodd" d="M1.54472 315.595C1.54472 314.666 1.23577 313.117 1.23577 312.188C1.23577 311.569 1.54472 310.949 1.85366 310.33C2.1626 309.71 1.54472 309.401 1.54472 309.091C1.85366 308.162 2.78049 308.162 2.78049 307.233C2.78049 306.304 2.47154 305.374 2.47154 304.755C2.47154 303.206 4.94309 302.587 4.63415 301.039C4.63415 300.419 4.63415 299.8 4.63415 298.871C3.70732 298.871 3.39837 299.18 2.78049 298.251C2.47154 297.632 2.47154 296.703 2.78049 296.083C2.78049 294.844 3.08943 293.605 2.78049 292.367C1.23577 292.057 2.1626 290.508 2.1626 289.579C2.47154 288.031 3.70732 288.34 3.39837 287.102C3.39837 286.792 2.78049 285.243 2.78049 284.934C3.08943 284.004 4.01626 284.314 4.01626 283.075C4.01626 281.836 3.70732 279.668 3.08943 278.739V271.926L5.25203 271.616C4.94309 270.997 5.25203 270.067 4.94309 269.448C4.94309 268.829 4.94309 268.209 4.94309 267.9C4.63415 267.9 4.01626 267.59 3.70732 267.59C3.08943 267.59 2.78049 266.661 2.47154 266.351C2.47154 265.732 2.78049 264.183 1.85366 264.183C1.54472 263.254 1.85366 261.705 1.85366 261.086C2.1626 259.537 2.1626 258.298 2.1626 256.75L0 252.104C0 251.795 0 251.795 0.308943 251.485C1.23577 249.936 1.23577 247.768 2.1626 246.22C2.47154 245.91 2.78049 244.361 2.47154 243.742C2.1626 242.813 2.47154 242.194 2.78049 241.264H3.08943C3.39837 240.645 3.39837 240.335 3.39837 239.716C3.39837 239.406 3.39837 239.096 3.39837 238.787C3.08943 238.477 3.08943 238.167 2.78049 238.167C2.47154 238.167 1.54472 236.309 1.23577 235.999C1.23577 235.69 0.926829 234.451 0.926829 233.831C0.617886 232.593 2.1626 231.973 1.54472 230.734C0.926829 229.495 2.47154 229.495 3.08943 228.566C3.39837 227.947 3.70732 225.779 3.70732 225.159C3.70732 223.921 3.39837 222.372 3.08943 221.133C3.08943 220.824 3.08943 220.514 2.78049 220.514C2.47154 220.204 2.1626 220.204 2.78049 219.894C3.08943 219.585 2.47154 219.275 2.47154 218.965C2.78049 218.346 3.39837 218.656 3.08943 218.036C2.78049 217.726 3.08943 217.107 3.08943 216.797C2.78049 216.178 1.85366 214.939 3.08943 214.32C4.01626 214.01 4.01626 214.32 3.70732 213.081C3.70732 212.771 4.01626 212.152 3.70732 211.842C3.70732 211.532 3.08943 211.532 3.70732 211.222C4.3252 210.603 3.70732 210.603 3.70732 209.984C3.70732 209.674 4.3252 209.674 4.3252 209.364C4.63415 209.055 4.63415 208.435 4.63415 208.125C4.63415 207.506 4.01626 207.506 4.3252 206.887C4.63415 206.267 4.63415 205.648 4.94309 205.028C4.94309 204.719 4.94309 204.409 4.94309 204.099V203.789H6.4878C8.03252 203.789 9.26829 204.099 10.813 203.789C11.7398 203.48 12.9756 203.17 13.9024 202.86C14.5203 202.86 15.1382 202.86 15.4472 202.551C16.6829 201.931 16.9919 201.931 17.3008 200.383C17.3008 199.144 18.2276 198.524 18.5366 197.286C18.8455 196.356 19.1545 196.047 19.4634 195.118C20.0813 194.188 20.0813 192.95 19.7724 191.711C19.4634 190.472 18.8455 188.614 19.1545 187.375C19.4634 185.207 21.0081 185.207 22.2439 183.349C23.7886 181.49 24.0976 180.871 24.0976 178.703C25.3333 178.393 29.0407 177.774 27.4959 175.916C25.9512 173.438 27.8049 171.58 29.6585 170.65C30.5854 170.341 31.8211 169.721 33.0569 169.721C33.3659 169.721 34.9106 170.031 35.2195 169.721C35.5285 169.412 36.1463 168.792 36.4553 168.792C37.0732 168.482 37.0732 167.553 37.0732 166.934C37.0732 166.314 38.3089 166.314 38.6179 165.695C38.9268 164.766 38.9268 163.217 38.9268 161.979C39.2358 160.43 40.1626 160.12 41.3984 159.501C41.7073 159.191 41.7073 157.023 41.7073 156.713C40.7805 156.404 39.8537 156.094 38.9268 155.475C38 155.165 38.3089 153.616 37.6911 152.997C37.0732 152.068 39.8537 148.661 39.5447 147.112C39.8537 146.183 41.3984 144.325 42.6341 144.944C43.252 145.254 46.0325 147.112 46.3415 146.803C46.6504 146.183 46.6504 145.254 46.6504 144.325C46.6504 142.776 46.9594 141.538 47.5772 140.299C48.1951 138.441 48.1951 137.202 47.8862 135.034C47.5772 134.105 46.9594 134.105 46.3415 133.485C45.7236 133.175 45.7236 132.556 45.1057 131.937C44.7968 130.698 43.8699 129.459 44.1789 127.91C44.4878 126.672 45.4146 125.433 45.1057 124.194C44.7968 123.265 44.7967 122.336 44.4878 121.406C44.1789 121.097 43.561 120.787 43.252 120.477V116.451L36.7642 112.115L33.9837 109.328L36.4553 96.9394L38.9268 92.2937L42.0163 89.816L41.7073 87.648L38.9268 86.7189V83.3121L41.3984 80.8344L39.5447 74.3305L39.8537 70.614L40.4715 68.446L40.1626 57.9158L51.9024 48.3148L55.6098 42.4303L58.3902 38.7138L59.935 30.971V17.6535L63.9512 17.3438L73.5285 8.67189L90.2114 4.33595L91.4472 6.19421L95.7724 6.81363L98.2439 5.8845L107.203 6.50392L109.675 3.71653L109.984 1.85826L117.398 0L122.341 2.16797L122.959 2.78739H124.195L129.138 4.95537L139.951 8.36218L142.732 9.91073L147.984 8.67189L154.78 11.769L165.594 23.538L169.919 31.2808L171.463 32.5196L171.772 34.3779H173.317L174.244 35.9264L176.098 37.475L181.35 37.7847L183.821 36.5458L187.528 32.5196L194.016 34.3779L211.626 23.2283L223.984 25.3963L228 28.4934L229.854 28.8031L236.341 35.307L239.431 34.9973L242.52 36.2361L244.374 38.0944L245.61 40.2624L259.203 45.2177L261.057 44.908L270.634 45.5274L274.341 45.8371H278.667L284.537 46.4566L287.935 45.8371L293.496 39.6429L295.35 37.1652L299.057 33.139L303.691 29.7322L310.488 26.6351L316.667 27.2545L321.301 25.706L325.935 23.8477L328.407 22.9186L346.325 22.2991L363.317 22.9186L366.715 23.8477L371.041 25.706L379.073 27.5642L383.707 30.3516L388.033 33.4487L391.431 33.7584C391.431 33.7584 391.431 33.7584 391.74 33.4487C392.049 33.139 392.358 32.5196 392.667 32.5196C393.285 32.5196 392.976 33.7584 394.211 33.4487C395.138 33.139 394.829 34.3779 395.447 34.6876C396.683 35.307 396.374 34.0681 397.919 34.9973C398.537 35.307 399.463 34.6876 400.39 34.9973C401.626 34.9973 402.862 36.5458 403.789 35.9264C405.024 35.307 404.715 34.3779 404.715 33.139C405.024 31.5905 405.642 32.5196 406.569 32.2099C408.423 31.2808 407.805 30.6613 406.878 29.7322C406.569 29.1128 407.496 29.1128 407.805 29.1128C408.114 28.8031 407.496 28.1836 407.496 28.1836C408.114 27.5642 408.114 28.8031 408.423 27.5642C408.732 26.6351 409.041 27.2545 409.659 26.9448C409.968 26.9448 410.585 26.0157 410.894 26.3254C411.821 27.2545 411.821 27.5642 412.439 26.0157C413.057 24.7768 413.675 25.706 414.293 25.0865C414.911 24.7768 415.528 23.8477 415.528 22.9186C415.837 21.9894 416.146 22.6089 416.455 22.6089C416.764 22.6089 416.764 21.9894 417.073 21.6797C417.382 21.37 417.691 21.6797 418 21.37C418.309 21.0603 418 19.5118 418.618 20.1312C419.236 20.7506 419.545 17.9632 420.163 17.9632C421.089 17.6535 420.78 18.5826 421.398 18.5826C422.016 18.5826 422.634 17.6535 423.252 17.3438C423.561 17.3438 423.561 17.3438 423.87 17.3438H424.179C424.488 17.3438 425.106 17.3438 425.415 17.0341L426.341 16.4147C426.959 17.0341 428.195 15.1758 427.886 16.4147C427.268 18.8923 430.667 14.8661 430.667 16.4147C430.667 17.0341 430.667 17.6535 431.285 17.0341C432.211 16.1049 433.138 18.2729 433.756 16.4147C433.756 16.1049 433.756 15.7952 434.065 15.4855C434.992 14.8661 433.756 13.937 434.683 14.2467C435.61 14.2467 435.919 13.937 435.301 13.3175C434.374 12.6981 435.919 12.0787 436.537 11.769C437.463 11.1496 437.772 9.91073 438.699 9.60102C439.626 9.29131 440.862 9.29131 441.789 9.29131L451.057 9.60102L469.594 35.9264L474.537 56.9867V59.7741C474.537 61.0129 474.537 61.013 473.61 61.6324C472.683 62.2518 473.919 62.8712 474.228 63.4906C474.228 63.8003 473.919 64.1101 473.919 64.7295C473.919 65.3489 474.846 65.9683 475.463 66.278C476.081 66.5877 477.626 65.9683 478.244 66.278C478.553 66.5877 478.862 67.2072 479.48 66.8974C480.407 66.278 480.098 66.278 481.333 66.8974C481.951 67.2072 482.878 66.8974 483.805 66.8974C484.732 66.5877 484.732 66.8974 485.041 67.5169C485.041 67.8266 485.659 67.5169 485.967 67.5169C486.894 67.5169 486.894 68.7557 487.821 68.446C488.439 68.1363 488.13 69.6848 487.821 69.9946C487.821 70.3043 489.366 70.9237 489.675 71.2334C489.984 71.8528 489.057 72.1625 489.675 72.4722C489.984 72.4722 491.22 72.7819 491.22 72.7819C491.837 73.4014 491.837 74.0208 492.146 74.6402C492.764 75.2596 493.382 74.3305 493.691 74.3305C493.691 74.6402 494 75.2596 494 75.8791C494 76.4985 493.073 76.4985 493.073 77.1179C493.073 77.7373 493.073 77.7373 493.073 78.3567C492.146 79.2859 492.764 79.2859 493.382 79.9053C492.455 80.8344 491.837 80.5247 492.455 82.0733C492.764 83.0024 493.382 83.3121 493.382 84.5509C493.382 85.1704 492.764 85.4801 492.764 85.7898C492.764 86.0995 493.073 86.0995 493.382 86.4092C493.382 87.3383 491.529 87.648 492.146 88.8869C492.455 89.5063 492.146 91.984 491.837 92.2937C491.528 92.9131 489.984 94.152 489.366 94.4617C489.675 96.3199 491.528 94.7714 491.837 96.3199C492.146 97.2491 493.073 97.8685 493.382 98.7976C494 101.275 491.837 104.063 489.366 104.682C487.512 104.992 486.894 107.16 485.35 107.16C484.114 107.16 483.496 108.708 482.569 109.018C481.333 109.947 480.407 110.876 478.862 111.496C477.626 112.115 477.008 112.425 475.772 113.664C473.301 116.451 472.374 113.354 470.211 113.664C468.358 113.973 467.74 112.115 466.195 112.115C464.959 112.115 464.033 115.832 463.106 116.761C462.797 117.071 462.797 118 462.488 118.309C462.179 118.619 461.561 118.309 461.561 118.929C461.561 120.168 460.943 120.168 460.634 121.097C460.325 122.026 459.707 121.406 459.089 122.026C458.472 122.645 458.163 124.504 457.854 124.813C457.236 125.123 456.618 124.813 456.309 124.813C455.073 124.813 455.691 125.433 455.382 126.052C455.382 126.362 454.764 126.362 454.764 126.672C454.455 127.291 455.073 128.84 455.073 129.459C455.073 129.769 455.073 131.627 454.146 131.317C453.22 131.008 453.22 131.627 453.22 132.246C453.22 132.866 452.602 132.556 452.293 132.556C451.984 132.866 451.366 133.485 451.984 133.795C452.602 134.105 451.675 135.034 451.366 135.343C450.748 135.653 451.366 135.963 451.057 136.582C451.057 137.202 450.13 136.892 449.821 137.511C449.203 138.131 450.13 138.441 449.512 139.06C448.894 139.679 449.512 140.299 448.894 140.609C448.276 141.228 448.894 142.777 448.894 143.706C448.894 144.325 450.748 144.944 449.512 145.254C448.585 145.564 447.659 144.944 447.659 146.183C447.659 146.803 447.659 146.803 447.35 147.422C447.041 148.042 447.041 148.661 447.35 149.28C447.35 149.9 447.967 151.448 447.967 151.758C447.659 152.997 447.659 155.165 446.732 156.094C445.805 157.023 446.423 157.023 446.423 158.262C445.496 159.191 445.496 158.262 444.878 159.811C444.569 160.43 442.715 160.12 443.333 160.74C443.642 161.049 443.951 161.669 443.642 161.979C443.333 162.288 442.715 161.359 442.098 161.669C442.098 161.979 442.098 162.288 442.098 162.288C441.171 162.598 440.244 161.979 439.317 162.288C437.772 162.908 438.39 164.456 437.772 165.076C437.154 165.695 436.228 165.076 436.228 166.314C436.228 167.553 437.155 167.244 437.463 168.173C438.699 170.031 435.61 169.721 435.919 171.27C436.228 172.199 435.61 172.509 436.537 173.128C437.155 173.438 438.699 174.057 438.081 174.986C437.463 176.225 436.537 177.154 436.537 178.393C436.537 178.703 436.846 179.013 436.846 179.322C436.846 179.942 436.537 179.942 436.228 180.251C434.992 181.49 436.537 185.207 434.374 185.517C433.756 185.517 433.447 186.136 432.829 186.446C431.285 187.065 429.431 187.065 427.886 187.685C426.959 187.994 425.106 189.543 424.488 190.472C423.87 191.401 423.87 192.02 422.634 192.02C421.398 192.02 421.398 193.569 420.163 193.569C420.163 194.498 421.707 194.808 422.325 194.808C423.87 194.808 422.634 196.666 422.634 197.595C422.634 198.524 422.325 199.453 422.325 200.383C422.016 201.002 421.707 202.241 421.707 202.86C421.707 203.48 422.325 203.48 422.325 204.409C422.016 205.957 421.089 208.125 419.854 209.364C419.236 209.984 418.309 211.842 418.618 212.771C418.927 213.7 418.309 214.32 417.691 214.939C417.691 215.868 419.236 216.488 418 217.417C417.382 218.036 417.691 219.275 417.382 219.585C417.382 219.585 416.455 218.965 416.146 218.965C413.057 217.417 414.911 224.23 411.821 223.301C411.203 223.611 409.659 223.611 409.659 224.54C409.659 225.159 409.967 225.779 409.041 225.779C407.496 225.779 406.878 223.921 405.642 223.921C404.407 223.921 404.406 225.159 402.862 224.85C401.935 224.54 403.48 227.018 403.48 227.327C404.098 228.566 401.008 230.734 399.772 231.044C398.537 231.354 398.228 233.522 397.301 232.902C396.683 232.592 396.374 232.283 395.447 231.973L394.52 234.141L394.829 243.432L392.358 245.91L392.976 251.795C392.667 252.104 392.667 252.414 392.667 252.724C392.667 253.033 392.049 253.033 391.74 253.343C391.122 253.653 391.122 254.582 390.504 255.201L387.724 258.918C387.106 259.537 387.106 260.776 386.797 261.396C386.179 262.325 385.87 262.634 385.252 263.873C384.943 264.493 384.634 264.183 384.325 264.802C384.325 265.732 384.943 266.041 384.943 266.97C384.943 267.59 384.634 268.209 385.252 268.519C385.561 268.829 384.943 269.138 384.943 269.448C384.943 269.758 385.561 270.067 385.561 270.377C385.252 271.306 384.016 270.997 383.398 271.306C383.089 271.616 383.089 271.926 382.472 271.616C381.854 271.616 381.236 271.926 381.236 272.545C380.927 273.165 381.854 273.784 381.545 274.403C381.236 275.023 381.854 275.642 380.927 276.262C380.309 276.571 379.691 277.191 380 278.12C380.309 278.739 379.691 278.739 379.382 279.049C379.382 279.359 379.382 279.668 379.073 279.978C378.764 280.288 378.455 280.288 378.455 280.598C378.146 281.527 379.073 281.217 379.691 281.527C379.691 282.146 378.764 282.766 378.764 283.075C378.764 283.695 379.073 284.004 379.073 284.624C379.073 285.863 380 286.792 379.382 288.031C379.073 288.34 378.455 288.96 378.146 288.34C377.528 288.34 377.837 289.27 377.22 288.96C376.602 288.34 375.984 288.65 375.675 289.27C374.748 291.128 373.512 289.27 372.276 290.818C372.276 291.128 370.423 292.367 370.114 292.367C369.496 292.367 368.878 292.057 368.878 292.986C368.878 293.915 369.187 293.605 368.569 294.225C368.26 294.535 368.26 294.844 368.26 295.154C368.26 295.773 367.024 295.773 366.715 296.083C366.098 297.012 365.789 297.941 367.024 298.561C367.333 299.49 366.407 299.8 367.642 300.109C367.642 301.039 366.098 301.039 366.715 301.968C367.333 302.897 367.333 303.206 366.407 303.826C365.789 304.136 366.098 304.445 366.098 305.065C366.098 305.994 365.789 305.994 365.171 306.613C364.862 306.923 364.553 308.472 363.626 308.472C363.317 308.472 362.699 307.852 362.39 308.162C362.081 308.472 360.846 308.472 360.846 308.781C361.155 309.401 361.155 309.71 360.846 310.64C360.537 311.569 359.61 311.259 358.683 311.259C358.065 311.569 358.065 312.188 357.756 312.188C357.138 312.498 356.211 311.878 356.211 311.259C355.902 310.33 354.667 310.64 354.358 310.949C353.431 311.569 353.74 310.949 352.813 310.64C351.268 310.02 352.195 311.878 350.65 311.878C349.106 311.878 350.033 311.878 349.106 311.259C348.797 310.949 348.488 311.259 348.179 311.569C347.252 311.878 347.252 309.091 347.252 308.472C347.252 307.233 347.561 304.445 346.634 303.826C344.472 302.277 342.618 305.684 340.455 303.826C339.528 302.897 339.837 302.587 339.837 301.348C339.837 300.729 339.22 301.348 338.911 300.729C338.293 299.49 336.748 299.49 335.821 297.941L336.748 293.915C336.13 293.605 334.585 292.367 333.659 292.986C332.732 293.296 332.114 292.057 331.496 291.438C330.878 290.818 330.26 290.818 330.26 289.889C329.951 288.65 328.407 289.579 327.789 289.27L326.862 288.34C326.862 287.721 327.171 287.411 327.171 286.792C327.171 285.863 326.553 285.243 325.935 284.934L325.317 292.367C325.008 292.986 325.008 293.915 324.699 294.225C324.699 294.535 324.39 294.535 324.081 294.535C323.772 294.844 323.463 294.844 323.154 294.844L322.537 295.464L321.301 294.844L311.106 295.773L309.252 294.225C308.943 293.915 309.252 293.605 309.252 293.296C309.561 292.986 309.252 292.676 309.252 292.367C309.252 292.057 309.252 291.747 309.252 291.747C309.252 291.437 309.252 291.128 309.252 290.818L308.943 290.508V290.199C308.943 289.889 308.325 290.199 308.325 290.199L296.894 300.419C295.967 301.039 295.35 300.419 294.732 300.109C293.805 299.8 293.187 300.729 293.187 301.658C293.187 302.277 292.878 302.587 292.569 303.206C292.26 303.826 292.878 304.445 292.26 304.755C291.642 305.065 292.26 305.374 292.26 305.684C291.642 306.304 290.407 310.949 290.407 311.569C289.789 311.878 288.862 311.569 288.553 311.259C288.244 310.949 287.317 311.259 286.699 311.259C286.081 311.259 285.772 311.569 285.772 312.188C285.772 313.427 285.463 313.427 284.537 314.046C283.301 314.975 282.374 314.356 280.829 314.046L278.976 319.931C278.049 319.311 276.195 316.834 275.577 319.311C275.268 320.86 274.033 322.409 273.106 323.647C272.488 324.577 272.488 326.125 270.943 325.815C268.78 325.506 268.163 327.364 267.545 328.912L264.146 332.319L258.585 336.655L257.659 337.275L257.041 338.513L256.114 338.823L256.732 340.681C256.732 340.991 256.114 342.23 256.423 342.54C256.732 343.159 255.496 343.159 255.805 343.779C256.114 345.327 253.951 344.708 255.496 346.256C256.114 346.876 257.041 347.495 257.35 348.115C257.659 348.734 258.585 350.282 258.276 350.902C257.967 351.521 257.35 351.831 257.041 352.45C256.423 353.38 255.805 353.999 255.496 354.928C254.878 355.857 254.569 356.786 255.187 357.716C255.496 358.335 254.878 358.954 254.878 359.574C254.569 361.122 253.951 364.219 254.26 365.458C254.569 366.078 253.951 366.387 253.642 367.007L252.715 369.175C252.407 369.484 251.789 369.485 251.48 369.794C250.553 370.723 250.553 371.962 249.935 372.891C249.626 373.511 248.699 373.511 249.317 374.44C249.626 374.75 247.463 375.679 247.772 376.298C247.772 376.918 248.081 377.227 247.154 377.537C246.228 377.847 245.919 377.847 245.919 378.776C245.919 379.395 246.846 380.015 246.846 380.944L245.301 381.873L244.683 381.563C244.374 381.563 244.374 381.563 244.065 381.563C243.447 381.873 243.447 382.802 243.447 383.422C243.447 383.731 243.138 384.351 243.138 384.66C243.447 385.589 242.829 385.899 242.211 386.209C241.902 386.209 241.285 386.519 240.976 386.519C240.358 386.519 240.049 385.589 240.049 385.28C240.667 384.041 239.74 384.66 239.122 384.97C237.886 385.589 238.195 384.97 237.268 384.351C236.65 384.041 237.268 383.731 237.268 383.422C237.268 382.802 236.033 383.421 235.724 383.112C235.106 382.802 234.179 381.254 234.179 380.634C233.87 379.395 231.398 378.776 232.634 377.537C232.943 377.227 232.943 376.918 233.252 376.608C233.561 375.988 232.325 377.537 232.016 377.227C231.707 377.227 231.089 376.298 230.78 376.298C229.854 375.679 228 373.201 228.309 374.75C228.618 374.75 230.163 375.988 230.472 376.298C231.089 376.918 231.398 377.847 232.016 378.776C232.325 379.395 232.943 379.705 233.561 380.324C233.561 380.634 233.252 380.944 233.561 381.254C233.87 381.563 234.488 381.873 234.179 382.183C233.252 382.802 233.252 380.944 232.634 381.254C232.325 381.254 231.089 380.634 231.398 380.944C231.398 381.254 232.016 381.254 232.016 381.254L233.252 382.802C234.179 383.731 235.106 384.041 234.797 385.28C234.797 385.899 235.724 387.138 234.797 387.757C234.488 388.067 234.797 388.067 234.797 388.377C234.797 388.996 235.415 389.306 235.724 389.925C235.724 391.474 234.179 389.925 233.87 391.474C233.561 392.093 233.561 392.713 233.252 393.332C228 392.403 221.821 393.023 216.26 393.332C214.715 393.332 212.244 394.261 211.008 394.261C209.772 394.261 208.537 394.571 207.61 394.881C206.683 395.19 206.374 395.81 205.447 395.5C205.447 395.19 205.138 394.261 204.52 394.571C204.52 394.881 204.52 395.5 204.52 395.81C203.902 396.12 201.122 396.12 200.195 396.429C198.033 396.739 196.797 396.739 194.634 396.429C193.707 396.12 194.016 395.81 194.016 395.19C194.016 394.881 194.634 394.571 194.634 394.261C194.325 394.261 193.398 393.952 193.707 394.261C194.016 394.571 193.707 395.5 193.707 395.81C193.707 396.12 194.016 396.739 194.016 397.049C194.016 397.978 193.707 397.668 193.089 397.978C191.854 398.288 190.618 398.907 189.691 399.217C188.764 399.526 186.911 399.217 186.602 398.288C186.293 397.358 188.455 395.81 188.764 395.19C189.382 394.571 190 393.952 190.309 393.332C190.618 392.713 190.927 393.023 191.545 393.023C191.545 393.023 190.927 392.093 190.927 391.784L190 390.545C189.073 389.616 188.764 388.067 187.528 387.448C186.911 387.448 185.984 386.828 185.675 386.519C185.366 386.519 185.366 386.519 185.675 386.519C185.984 387.138 187.528 387.757 188.146 388.377C189.691 389.616 189.382 392.403 189.073 393.952C188.764 396.12 187.837 395.19 186.602 395.5C185.366 395.81 184.439 396.739 182.894 396.12C182.585 395.81 182.585 395.19 182.585 394.571C182.276 393.642 182.276 392.713 181.967 391.784C181.659 390.545 181.659 389.925 181.659 388.687C181.659 388.377 181.041 386.828 180.732 386.209C180.732 385.899 180.732 385.899 180.732 386.209C180.732 387.138 181.35 388.067 181.35 388.996C181.35 389.925 181.659 392.403 181.35 393.332C181.041 393.642 181.659 395.5 181.967 395.81C182.276 396.739 183.821 398.597 182.585 399.217C181.35 399.836 178.26 398.907 177.333 398.288C175.48 397.358 175.48 393.332 174.862 391.474C174.553 390.235 176.715 389.925 175.48 388.687C175.171 388.377 173.626 387.138 173.626 387.448C173.626 388.067 174.553 388.687 174.862 388.996C175.789 389.925 173.935 390.545 173.935 391.474C173.935 392.093 174.553 393.642 174.862 394.261C175.171 395.5 175.171 396.739 175.48 397.978C175.789 399.217 178.26 400.456 175.789 400.456C174.553 400.456 173.317 400.765 172.39 400.765C170.228 401.075 170.846 399.217 170.228 397.668C170.228 397.049 170.537 396.739 170.537 396.429C170.228 395.81 169.919 395.81 169.919 394.571C169.919 393.642 170.537 393.022 170.846 392.403C171.154 391.474 170.846 390.855 170.846 389.925C170.846 390.855 170.537 391.784 170.228 392.713C169.61 393.952 168.992 394.571 169.61 396.12C169.919 396.429 169.919 398.288 169.301 397.049C169.301 396.739 168.992 396.429 168.992 396.12C168.992 395.81 167.756 392.713 167.756 394.571C167.756 394.881 168.065 395.19 168.065 395.19C168.374 395.19 168.374 396.739 168.374 397.049C168.374 397.978 169.61 398.907 169.919 399.836C170.228 400.765 169.301 400.456 168.683 400.765C167.756 401.075 167.447 402.314 166.52 401.385C166.211 401.075 164.358 399.526 164.976 401.075C165.285 401.694 164.049 401.694 163.74 401.694C162.813 401.694 161.268 402.004 160.341 402.004C159.415 402.314 158.797 402.004 158.797 401.075C158.797 400.765 157.561 401.075 157.561 401.385C157.561 401.694 157.87 402.004 157.87 402.624C156.943 402.933 155.707 402.933 154.472 402.933C153.545 402.933 151.382 403.243 150.764 403.243C150.455 403.243 151.073 402.004 151.073 402.004C151.382 400.765 153.854 398.597 153.545 397.358C153.236 397.358 152.309 399.836 151.691 399.217C151.382 398.907 151.073 396.12 150.764 395.5C150.455 395.5 150.764 397.358 151.073 397.668C151.382 398.907 149.837 400.146 149.837 401.385C149.837 402.004 150.764 404.172 149.22 403.862C148.293 404.172 146.439 403.862 145.512 403.862C144.894 403.862 143.967 404.172 143.967 403.243C143.967 402.624 143.967 400.146 143.659 399.836C143.35 400.146 143.659 401.075 143.659 401.694V403.862C143.041 403.862 141.805 403.553 141.187 403.243C139.333 402.624 139.951 402.624 139.951 401.075C139.951 400.456 139.951 399.526 139.951 398.907C139.951 398.597 140.569 397.049 140.26 397.049C139.951 397.668 139.642 398.288 139.333 399.217C139.024 400.146 139.333 401.075 139.024 402.004C134.081 399.836 130.065 394.571 125.74 391.164C124.813 390.235 122.341 387.138 122.033 385.899C120.797 382.802 118.943 380.634 118.016 377.537C117.398 374.75 116.472 372.582 114.927 370.104C114.618 368.246 113.382 367.936 114 366.387C114.309 365.149 113.691 362.671 113.382 361.432C113.382 361.122 112.764 359.574 113.073 359.264C113.382 359.264 115.545 359.264 116.163 359.264C118.325 359.264 118.016 359.883 118.943 357.716C119.561 357.406 120.797 358.335 120.797 357.096C120.797 355.857 120.488 355.238 121.106 353.999C121.724 352.76 123.886 353.999 124.813 351.831C125.122 351.831 125.74 351.831 125.74 351.521C123.886 350.902 124.195 352.76 122.959 352.76C120.488 352.76 120.797 353.689 119.87 355.857C118.943 358.025 118.016 356.167 117.398 356.477C117.089 356.786 118.325 357.716 116.78 357.716C115.854 357.716 115.236 357.406 114.309 357.096L110.911 356.477C109.984 355.857 105.659 352.141 106.585 350.902C107.512 349.353 108.748 348.734 110.602 349.044C112.146 349.353 113.691 349.663 115.236 349.663C115.854 349.663 115.854 349.044 116.163 348.734C116.163 348.115 115.236 349.044 114.927 349.044C114.309 349.353 113.691 349.044 113.073 348.734C111.837 347.805 109.366 348.115 107.821 348.734C106.585 349.353 105.967 348.115 105.35 347.495C103.805 345.637 102.569 344.088 103.187 341.611C103.496 340.372 105.041 340.372 105.967 339.752C106.276 339.443 110.602 336.655 110.911 336.345C109.984 336.345 105.659 339.133 104.732 339.443C104.114 339.752 101.951 342.23 101.951 341.92C101.333 341.92 100.715 340.681 100.407 340.062C99.7886 338.513 98.2439 337.275 97.626 335.726C97.0081 333.558 93.9187 330.771 92.374 329.222L85.5772 323.338C84.3415 322.409 82.4878 321.789 81.8699 320.55C79.0894 318.692 76.9268 317.143 73.5285 316.524L61.4797 314.666L55.3008 313.737L34.6016 314.666V312.808C35.2195 312.808 35.8374 312.808 36.4553 312.808C37.3821 312.498 37.6911 313.427 38.6179 313.427C39.5447 313.427 40.7805 312.188 41.0894 311.259C41.7073 310.02 43.561 310.64 44.4878 310.33C45.1057 310.02 45.7236 309.71 46.3415 309.71C46.9594 309.71 47.8862 309.091 47.8862 308.472C49.122 306.613 51.9024 306.613 54.065 306.923C55.9187 307.233 57.4634 307.852 59.3171 308.472C59.935 308.781 61.7886 309.091 62.0976 309.71C62.7155 310.33 61.7886 311.259 61.1707 311.259C59.935 311.259 58.3902 310.33 57.1545 310.64C55.9187 310.949 58.6992 311.878 59.0081 312.188C59.0081 312.498 61.1707 313.427 61.4797 313.737C62.7155 314.666 63.0244 314.046 61.7886 313.427C62.7155 313.427 63.9512 312.808 64.5691 314.046L64.8781 314.666C65.187 314.666 65.4959 313.737 65.187 313.737C65.187 313.427 66.4228 313.117 66.7317 313.117C65.8049 312.807 64.5691 313.117 64.5691 312.188C64.5691 310.949 65.4959 311.259 66.1138 310.64C68.5854 308.472 64.8781 307.852 63.3333 309.401C61.4797 310.949 60.5528 309.091 58.3902 308.781C56.5366 308.162 54.9919 307.233 52.8293 307.233C50.6667 307.233 48.813 306.923 46.6504 307.542C45.1057 307.852 44.1789 309.091 42.6341 309.71C41.7073 310.02 41.0894 309.401 40.4715 309.71C39.2358 310.33 38.9268 310.33 38 310.64C35.5285 309.71 37.0732 309.091 37.0732 307.542C36.7642 307.233 35.8374 308.162 35.5285 308.472C35.2195 309.71 33.6748 309.091 33.9837 310.64C34.2927 311.878 33.6748 312.498 33.3659 313.427C33.0569 314.356 33.3659 314.975 33.3659 315.595C32.748 315.905 29.6585 315.595 29.0407 315.595L22.5528 316.214C17.9187 316.524 13.9024 315.905 9.57724 316.834C4.3252 315.285 3.08943 315.595 1.54472 315.595Z" fill="#005835"/>
</svg>
